<?xml version="1.0" encoding="UTF-8" standalone="no"?>
<!DOCTYPE svg PUBLIC "-//W3C//DTD SVG 1.1//EN" "http://www.w3.org/Graphics/SVG/1.1/DTD/svg11.dtd">
<svg width="802px" height="800px" version="1.1" xmlns="http://www.w3.org/2000/svg" xmlns:xlink="http://www.w3.org/1999/xlink" xml:space="preserve" xmlns:serif="http://www.serif.com/" style="fill-rule:evenodd;clip-rule:evenodd;stroke-linejoin:round;stroke-miterlimit:2;">
    <g transform="matrix(1,0,0,1,-559.271,-140.1)">
        <g transform="matrix(1,0,0,1,560.004,139.975)">
            <path d="M797.7,656.225L651.4,385.675C666.325,351.8 674.675,314.375 674.675,274.975C674.675,123.175 551.625,0.125 399.825,0.125C248,0.125 124.95,123.2 124.95,274.975C124.95,315.325 133.725,353.6 149.3,388.075L2.35,656.1C-2.4,664.725 -1.6,675.35 4.325,683.2C10.25,691.05 20.275,694.725 29.875,692.475L155.35,663.7L198.3,783.325C201.65,792.625 210.15,799.075 219.975,799.8C220.6,799.85 221.225,799.875 221.825,799.875C230.975,799.875 239.475,794.85 243.85,786.7L371.75,548.45C380.975,549.4 390.35,549.875 399.825,549.875C408.5,549.875 417.075,549.425 425.55,548.625L556.225,786.925C560.65,795 569.075,799.925 578.15,799.925C578.8,799.925 579.45,799.9 580.1,799.85C589.9,799.05 598.35,792.625 601.675,783.375L644.625,663.75L770.125,692.525C779.75,694.85 789.675,691.1 795.625,683.3C801.575,675.5 802.375,664.925 797.725,656.275L797.7,656.225ZM226.4,713.55L194.95,625.925C190.65,614 178.175,607.075 165.825,610L73.025,631.3L178.8,438.35C213.625,485.425 263.125,520.925 320.55,538.2L226.4,713.55ZM175.175,274.975C175.175,151.1 275.975,50.325 399.825,50.325C523.675,50.325 624.45,151.1 624.45,274.975C624.45,398.85 523.675,499.625 399.8,499.625C275.925,499.625 175.15,398.825 175.15,274.975L175.175,274.975ZM634.175,610C621.775,607.075 609.35,614 605.05,625.9L573.375,714.15L477.15,538.725C536.075,521.45 586.8,485.025 622.075,436.6L727.425,631.375L634.175,610Z" style="fill:rgb(230,169,26);fill-rule:nonzero;"/>
        </g>
        <g transform="matrix(1,0,0,1,-18.3858,19.1104)">
            <g transform="matrix(85.1588,0,0,85.1588,799.69,347)">
                <path d="M0.855,-0L0.668,-0L0.668,-0.487L0.534,-0.171L0.404,-0.171L0.27,-0.487L0.27,-0L0.093,-0L0.093,-0.727L0.311,-0.727L0.474,-0.362L0.637,-0.727L0.855,-0.727L0.855,-0Z" style="fill:rgb(230,169,26);fill-rule:nonzero;"/>
            </g>
            <g transform="matrix(85.1588,0,0,85.1588,880.399,347)">
                <path d="M0.765,-0L0.571,-0L0.521,-0.147L0.251,-0.147L0.201,-0L0.012,-0L0.28,-0.727L0.496,-0.727L0.765,-0ZM0.475,-0.28L0.386,-0.541L0.296,-0.28L0.475,-0.28Z" style="fill:rgb(230,169,26);fill-rule:nonzero;"/>
            </g>
            <g transform="matrix(85.1588,0,0,85.1588,946.514,347)">
                <path d="M0.732,-0.727L0.464,-0.281L0.464,-0L0.277,-0L0.277,-0.272L0.004,-0.727L0.217,-0.727L0.375,-0.446L0.526,-0.727L0.732,-0.727Z" style="fill:rgb(230,169,26);fill-rule:nonzero;"/>
            </g>
            <g transform="matrix(85.1588,0,0,85.1588,1009.26,347)">
                <path d="M0.8,-0.363C0.8,-0.247 0.767,-0.155 0.7,-0.087C0.634,-0.019 0.542,0.015 0.425,0.015C0.308,0.015 0.216,-0.019 0.15,-0.087C0.083,-0.155 0.05,-0.247 0.05,-0.363C0.05,-0.48 0.083,-0.573 0.15,-0.64C0.216,-0.708 0.308,-0.742 0.425,-0.742C0.541,-0.742 0.633,-0.708 0.7,-0.64C0.766,-0.573 0.8,-0.48 0.8,-0.363ZM0.551,-0.179C0.569,-0.201 0.583,-0.227 0.592,-0.258C0.601,-0.288 0.605,-0.323 0.605,-0.364C0.605,-0.407 0.6,-0.444 0.59,-0.475C0.58,-0.506 0.567,-0.53 0.55,-0.549C0.534,-0.569 0.515,-0.583 0.493,-0.592C0.471,-0.601 0.449,-0.605 0.425,-0.605C0.402,-0.605 0.379,-0.601 0.358,-0.592C0.337,-0.584 0.318,-0.57 0.3,-0.55C0.284,-0.532 0.271,-0.507 0.26,-0.475C0.25,-0.443 0.245,-0.406 0.245,-0.363C0.245,-0.32 0.25,-0.283 0.26,-0.253C0.27,-0.222 0.283,-0.197 0.299,-0.178C0.316,-0.159 0.335,-0.145 0.356,-0.136C0.378,-0.127 0.401,-0.122 0.425,-0.122C0.449,-0.122 0.472,-0.127 0.494,-0.136C0.516,-0.145 0.535,-0.16 0.551,-0.179Z" style="fill:rgb(230,169,26);fill-rule:nonzero;"/>
            </g>
            <g transform="matrix(85.1588,0,0,85.1588,1081.65,347)">
                <path d="M0.5,-0.504C0.5,-0.523 0.497,-0.538 0.489,-0.551C0.482,-0.564 0.469,-0.575 0.451,-0.582C0.438,-0.587 0.423,-0.59 0.406,-0.592C0.389,-0.593 0.37,-0.593 0.347,-0.593L0.279,-0.593L0.279,-0.397L0.337,-0.397C0.367,-0.397 0.392,-0.399 0.412,-0.402C0.432,-0.405 0.449,-0.411 0.463,-0.422C0.476,-0.432 0.485,-0.443 0.491,-0.455C0.497,-0.468 0.5,-0.484 0.5,-0.504ZM0.793,-0L0.564,-0L0.366,-0.267L0.279,-0.267L0.279,-0L0.093,-0L0.093,-0.727L0.407,-0.727C0.45,-0.727 0.487,-0.725 0.518,-0.72C0.549,-0.715 0.578,-0.704 0.605,-0.688C0.632,-0.672 0.654,-0.651 0.67,-0.625C0.686,-0.599 0.694,-0.566 0.694,-0.527C0.694,-0.474 0.682,-0.43 0.657,-0.396C0.632,-0.362 0.597,-0.334 0.55,-0.312L0.793,-0Z" style="fill:rgb(230,169,26);fill-rule:nonzero;"/>
            </g>
            <g transform="matrix(85.1588,0,0,85.1588,909.548,432.159)">
                <path d="M0.78,-0.363C0.78,-0.295 0.764,-0.234 0.733,-0.181C0.702,-0.127 0.663,-0.086 0.616,-0.058C0.581,-0.036 0.542,-0.021 0.5,-0.013C0.457,-0.004 0.407,-0 0.349,-0L0.093,-0L0.093,-0.727L0.356,-0.727C0.416,-0.727 0.467,-0.722 0.51,-0.712C0.553,-0.702 0.589,-0.688 0.618,-0.67C0.668,-0.639 0.708,-0.598 0.737,-0.546C0.765,-0.494 0.78,-0.433 0.78,-0.363ZM0.586,-0.364C0.586,-0.412 0.577,-0.453 0.56,-0.487C0.542,-0.521 0.515,-0.548 0.477,-0.567C0.458,-0.576 0.438,-0.583 0.418,-0.586C0.398,-0.59 0.368,-0.591 0.328,-0.591L0.28,-0.591L0.28,-0.136L0.328,-0.136C0.372,-0.136 0.405,-0.138 0.426,-0.142C0.447,-0.146 0.467,-0.154 0.487,-0.165C0.521,-0.184 0.546,-0.21 0.562,-0.243C0.578,-0.276 0.586,-0.316 0.586,-0.364Z" style="fill:rgb(230,169,26);fill-rule:nonzero;"/>
            </g>
            <g transform="matrix(85.1588,0,0,85.1588,980.236,432.159)">
                <path d="M0.619,-0L0.093,-0L0.093,-0.727L0.619,-0.727L0.619,-0.586L0.279,-0.586L0.279,-0.461L0.594,-0.461L0.594,-0.32L0.279,-0.32L0.279,-0.141L0.619,-0.141L0.619,-0Z" style="fill:rgb(230,169,26);fill-rule:nonzero;"/>
            </g>
            <g transform="matrix(85.1588,0,0,85.1588,841.146,517.318)">
                <path d="M0.619,-0L0.093,-0L0.093,-0.727L0.619,-0.727L0.619,-0.586L0.279,-0.586L0.279,-0.461L0.594,-0.461L0.594,-0.32L0.279,-0.32L0.279,-0.141L0.619,-0.141L0.619,-0Z" style="fill:rgb(230,169,26);fill-rule:nonzero;"/>
            </g>
            <g transform="matrix(85.1588,0,0,85.1588,899.319,517.318)">
                <path d="M0.78,-0.363C0.78,-0.295 0.764,-0.234 0.733,-0.181C0.702,-0.127 0.663,-0.086 0.616,-0.058C0.581,-0.036 0.542,-0.021 0.5,-0.013C0.457,-0.004 0.407,-0 0.349,-0L0.093,-0L0.093,-0.727L0.356,-0.727C0.416,-0.727 0.467,-0.722 0.51,-0.712C0.553,-0.702 0.589,-0.688 0.618,-0.67C0.668,-0.639 0.708,-0.598 0.737,-0.546C0.765,-0.494 0.78,-0.433 0.78,-0.363ZM0.586,-0.364C0.586,-0.412 0.577,-0.453 0.56,-0.487C0.542,-0.521 0.515,-0.548 0.477,-0.567C0.458,-0.576 0.438,-0.583 0.418,-0.586C0.398,-0.59 0.368,-0.591 0.328,-0.591L0.28,-0.591L0.28,-0.136L0.328,-0.136C0.372,-0.136 0.405,-0.138 0.426,-0.142C0.447,-0.146 0.467,-0.154 0.487,-0.165C0.521,-0.184 0.546,-0.21 0.562,-0.243C0.578,-0.276 0.586,-0.316 0.586,-0.364Z" style="fill:rgb(230,169,26);fill-rule:nonzero;"/>
            </g>
            <g transform="matrix(85.1588,0,0,85.1588,970.007,517.318)">
                <path d="M0.765,-0L0.571,-0L0.521,-0.147L0.251,-0.147L0.201,-0L0.012,-0L0.28,-0.727L0.496,-0.727L0.765,-0ZM0.475,-0.28L0.386,-0.541L0.296,-0.28L0.475,-0.28Z" style="fill:rgb(230,169,26);fill-rule:nonzero;"/>
            </g>
            <g transform="matrix(85.1588,0,0,85.1588,1036.12,517.318)">
                <path d="M0.78,-0.363C0.78,-0.295 0.764,-0.234 0.733,-0.181C0.702,-0.127 0.663,-0.086 0.616,-0.058C0.581,-0.036 0.542,-0.021 0.5,-0.013C0.457,-0.004 0.407,-0 0.349,-0L0.093,-0L0.093,-0.727L0.356,-0.727C0.416,-0.727 0.467,-0.722 0.51,-0.712C0.553,-0.702 0.589,-0.688 0.618,-0.67C0.668,-0.639 0.708,-0.598 0.737,-0.546C0.765,-0.494 0.78,-0.433 0.78,-0.363ZM0.586,-0.364C0.586,-0.412 0.577,-0.453 0.56,-0.487C0.542,-0.521 0.515,-0.548 0.477,-0.567C0.458,-0.576 0.438,-0.583 0.418,-0.586C0.398,-0.59 0.368,-0.591 0.328,-0.591L0.28,-0.591L0.28,-0.136L0.328,-0.136C0.372,-0.136 0.405,-0.138 0.426,-0.142C0.447,-0.146 0.467,-0.154 0.487,-0.165C0.521,-0.184 0.546,-0.21 0.562,-0.243C0.578,-0.276 0.586,-0.316 0.586,-0.364Z" style="fill:rgb(230,169,26);fill-rule:nonzero;"/>
            </g>
        </g>
    </g>
</svg>
