<?xml version="1.0" encoding="UTF-8" standalone="no"?>
<!DOCTYPE svg PUBLIC "-//W3C//DTD SVG 1.1//EN" "http://www.w3.org/Graphics/SVG/1.1/DTD/svg11.dtd">
<svg width="586px" height="163px" version="1.1" xmlns="http://www.w3.org/2000/svg" xmlns:xlink="http://www.w3.org/1999/xlink" xml:space="preserve" xmlns:serif="http://www.serif.com/" style="fill-rule:evenodd;clip-rule:evenodd;stroke-linejoin:round;stroke-miterlimit:2;">
    <g transform="matrix(1,0,0,1,-610,-414)">
        <g transform="matrix(1,0,0,1,-4,24.1128)">
            <g transform="matrix(3.46736,0,0,3.46736,312.75,430.694)">
                <path d="M118.482,24.725C118.009,24.915 117.507,25.018 116.998,25.031C116.954,25.033 116.91,25.034 116.867,25.034C115.198,25.034 113.824,23.66 113.824,21.991C113.824,21.945 113.825,21.899 113.828,21.853C113.826,21.815 113.825,21.776 113.825,21.738C113.825,20.046 115.218,18.654 116.91,18.654C116.957,18.654 117.003,18.655 117.05,18.657C117.466,18.663 117.88,18.714 118.285,18.81C118.353,18.835 118.4,18.899 118.402,18.972L118.402,20.277C118.402,20.282 118.403,20.286 118.403,20.29C118.403,20.353 118.351,20.404 118.288,20.404C118.284,20.404 118.279,20.404 118.275,20.403L117.96,20.403C117.892,20.405 117.834,20.354 117.826,20.287L117.735,19.791C117.681,19.485 117.329,19.377 116.898,19.377C115.575,19.377 115.088,20.529 115.088,21.691C115.088,23.041 115.754,24.23 117.257,24.23C117.602,24.217 117.941,24.141 118.257,24.004C118.273,23.998 118.291,23.995 118.308,23.995C118.374,23.995 118.431,24.04 118.447,24.104L118.545,24.536C118.57,24.605 118.544,24.684 118.482,24.725Z" style="fill:rgb(42,42,41);fill-rule:nonzero;"/>
            </g>
            <g transform="matrix(3.46736,0,0,3.46736,312.75,430.694)">
                <path d="M121.217,25.049C121.202,25.049 121.186,25.049 121.17,25.049C119.984,25.049 119.008,24.073 119.008,22.887C119.008,22.809 119.013,22.732 119.021,22.654C119.016,22.593 119.014,22.531 119.014,22.469C119.014,21.201 120.041,20.152 121.308,20.124C121.325,20.124 121.341,20.124 121.358,20.124C122.541,20.124 123.515,21.097 123.515,22.281C123.515,22.354 123.511,22.428 123.503,22.501C123.509,22.565 123.511,22.63 123.511,22.694C123.511,23.963 122.486,25.016 121.217,25.049ZM121.245,20.746C120.38,20.746 120.137,21.565 120.137,22.501C120.137,23.681 120.587,24.418 121.253,24.418C122.109,24.418 122.388,23.644 122.388,22.672C122.388,21.502 121.937,20.746 121.245,20.746Z" style="fill:rgb(42,42,41);fill-rule:nonzero;"/>
            </g>
            <g transform="matrix(3.46736,0,0,3.46736,312.75,430.694)">
                <path d="M129.283,24.905L127.158,24.905C127.153,24.905 127.149,24.905 127.145,24.905C127.082,24.905 127.031,24.854 127.031,24.792C127.031,24.787 127.031,24.783 127.032,24.779L127.032,24.608C127.031,24.54 127.081,24.481 127.149,24.473L127.554,24.392C127.634,24.373 127.706,24.292 127.706,24.112L127.706,21.943C127.707,21.931 127.707,21.919 127.707,21.906C127.707,21.368 127.264,20.925 126.726,20.925C126.235,20.925 125.816,21.294 125.753,21.781L125.753,24.112C125.753,24.292 125.826,24.373 125.906,24.392L126.312,24.473C126.379,24.482 126.43,24.54 126.429,24.608L126.429,24.779C126.43,24.783 126.43,24.787 126.43,24.792C126.43,24.854 126.378,24.906 126.316,24.906C126.311,24.906 126.307,24.905 126.302,24.905L124.177,24.905C124.173,24.905 124.169,24.905 124.165,24.905C124.103,24.905 124.051,24.854 124.051,24.792C124.051,24.788 124.052,24.783 124.052,24.779L124.052,24.608C124.051,24.54 124.102,24.481 124.169,24.473L124.574,24.392C124.656,24.373 124.727,24.292 124.727,24.112L124.727,21.186C124.727,21.06 124.682,20.908 124.538,20.88L124.097,20.809C124.028,20.803 123.975,20.742 123.98,20.673L123.98,20.502C123.98,20.499 123.979,20.496 123.979,20.493C123.979,20.424 124.036,20.367 124.105,20.367C124.105,20.367 124.106,20.367 124.106,20.367L125.439,20.206C125.536,20.196 125.582,20.25 125.591,20.34L125.646,20.835L125.681,20.835C126.089,20.407 126.655,20.163 127.247,20.16C127.286,20.157 127.325,20.155 127.364,20.155C128.116,20.155 128.734,20.774 128.734,21.525C128.734,21.535 128.734,21.546 128.734,21.556L128.734,24.112C128.734,24.292 128.805,24.373 128.886,24.392L129.291,24.473C129.359,24.481 129.41,24.54 129.409,24.608L129.409,24.779C129.409,24.783 129.409,24.787 129.409,24.791C129.409,24.854 129.358,24.905 129.295,24.905C129.291,24.905 129.287,24.905 129.283,24.905Z" style="fill:rgb(42,42,41);fill-rule:nonzero;"/>
            </g>
            <g transform="matrix(3.46736,0,0,3.46736,312.75,430.694)">
                <path d="M131.324,25.004C130.925,25.003 130.529,24.948 130.145,24.842C130.07,24.822 130.015,24.757 130.009,24.68L130.009,23.698C130.008,23.693 130.008,23.687 130.008,23.682C130.008,23.621 130.058,23.571 130.119,23.571C130.125,23.571 130.13,23.571 130.136,23.572L130.388,23.572C130.46,23.572 130.505,23.617 130.523,23.698L130.604,24.014C130.667,24.248 130.937,24.373 131.342,24.373C131.801,24.373 132.198,24.121 132.198,23.698C132.198,23.329 131.918,23.14 131.54,22.987L130.992,22.762C130.44,22.621 130.047,22.125 130.037,21.556C130.11,20.759 130.786,20.142 131.586,20.142C131.643,20.142 131.7,20.145 131.756,20.151C132.11,20.146 132.463,20.197 132.8,20.304C132.875,20.322 132.928,20.39 132.927,20.466L132.927,21.358C132.928,21.362 132.928,21.366 132.928,21.37C132.928,21.438 132.872,21.493 132.805,21.493C132.8,21.493 132.796,21.493 132.791,21.493L132.584,21.493C132.521,21.493 132.476,21.456 132.45,21.367L132.377,21.088C132.324,20.872 132.099,20.764 131.748,20.764C131.387,20.764 131.009,20.943 131.009,21.304C131.009,21.637 131.279,21.781 131.622,21.925L132.144,22.141C132.736,22.292 133.162,22.818 133.188,23.428C133.125,24.315 132.377,25.012 131.487,25.012C131.433,25.012 131.378,25.009 131.324,25.004Z" style="fill:rgb(42,42,41);fill-rule:nonzero;"/>
            </g>
            <g transform="matrix(3.46736,0,0,3.46736,312.75,430.694)">
                <path d="M135.644,22.942C135.455,22.946 135.266,22.94 135.078,22.924C135.005,22.915 134.969,22.933 134.978,23.023C135.052,23.74 135.681,24.282 136.401,24.248C136.753,24.241 137.098,24.152 137.409,23.986C137.427,23.977 137.448,23.972 137.468,23.972C137.531,23.972 137.585,24.016 137.598,24.077L137.697,24.509C137.712,24.578 137.683,24.649 137.624,24.688C137.199,24.911 136.727,25.028 136.248,25.031C136.194,25.035 136.14,25.037 136.087,25.037C134.873,25.037 133.874,24.038 133.874,22.824C133.874,22.74 133.879,22.656 133.888,22.573C133.885,22.525 133.884,22.478 133.884,22.43C133.884,21.177 134.905,20.142 136.158,20.124C136.206,20.12 136.255,20.117 136.304,20.117C137.078,20.117 137.725,20.729 137.769,21.502C137.769,22.519 136.671,22.942 135.644,22.942ZM136.013,20.719C135.212,20.719 134.924,21.61 134.933,22.204C134.933,22.294 134.943,22.312 135.033,22.321C135.158,22.33 135.312,22.339 135.464,22.339C136.095,22.339 136.751,22.123 136.751,21.466C136.754,21.058 136.42,20.721 136.013,20.719L136.013,20.719Z" style="fill:rgb(42,42,41);fill-rule:nonzero;"/>
            </g>
            <g transform="matrix(3.46736,0,0,3.46736,312.75,430.694)">
                <path d="M138.523,26.759C138.335,26.764 138.148,26.731 137.974,26.66C137.915,26.634 137.882,26.571 137.893,26.507L138.01,26.084C138.037,25.976 138.109,25.94 138.181,25.976C138.308,26.024 138.442,26.049 138.578,26.048C139.244,26.048 139.459,25.526 139.459,24.806L139.459,21.214C139.459,21.088 139.423,20.943 139.271,20.943L138.424,20.943C138.422,20.943 138.419,20.944 138.417,20.944C138.356,20.944 138.306,20.893 138.306,20.833C138.306,20.828 138.306,20.822 138.307,20.817L138.343,20.476C138.341,20.404 138.398,20.343 138.469,20.34L140.324,20.206C140.33,20.205 140.337,20.204 140.343,20.204C140.411,20.204 140.469,20.255 140.477,20.322L140.477,24.671C140.487,24.751 140.493,24.831 140.493,24.911C140.493,25.927 139.657,26.763 138.641,26.763C138.602,26.763 138.562,26.762 138.523,26.759ZM139.91,19.476C139.888,19.478 139.867,19.48 139.845,19.48C139.534,19.48 139.279,19.224 139.279,18.913C139.279,18.903 139.279,18.892 139.28,18.882C139.28,18.878 139.28,18.873 139.28,18.869C139.28,18.548 139.544,18.284 139.864,18.284C139.885,18.284 139.906,18.285 139.927,18.288C140.36,18.288 140.567,18.522 140.567,18.873C140.567,18.881 140.567,18.889 140.567,18.898C140.567,19.218 140.304,19.481 139.984,19.481C139.959,19.481 139.934,19.479 139.91,19.476L139.91,19.476Z" style="fill:rgb(42,42,41);fill-rule:nonzero;"/>
            </g>
            <g transform="matrix(3.46736,0,0,3.46736,312.75,430.694)">
                <path d="M143.367,22.942C143.177,22.946 142.987,22.94 142.798,22.924C142.727,22.915 142.691,22.933 142.7,23.023C142.773,23.74 143.403,24.282 144.122,24.248C144.474,24.241 144.82,24.152 145.13,23.986C145.149,23.977 145.169,23.972 145.19,23.972C145.252,23.972 145.307,24.016 145.32,24.077L145.418,24.509C145.434,24.577 145.406,24.649 145.347,24.688C144.922,24.91 144.449,25.028 143.969,25.031C143.916,25.035 143.862,25.037 143.809,25.037C142.595,25.037 141.596,24.038 141.596,22.824C141.596,22.74 141.601,22.657 141.611,22.573C141.608,22.525 141.606,22.477 141.606,22.429C141.606,21.177 142.627,20.142 143.879,20.124C143.928,20.12 143.977,20.117 144.025,20.117C144.799,20.117 145.447,20.729 145.491,21.502C145.491,22.519 144.392,22.942 143.367,22.942ZM143.736,20.719C142.934,20.719 142.646,21.61 142.655,22.204C142.655,22.294 142.664,22.312 142.753,22.321C142.88,22.33 143.033,22.339 143.186,22.339C143.816,22.339 144.474,22.123 144.474,21.466C144.476,21.059 144.143,20.722 143.736,20.719Z" style="fill:rgb(42,42,41);fill-rule:nonzero;"/>
            </g>
            <g transform="matrix(3.46736,0,0,3.46736,312.75,430.694)">
                <path d="M149.523,21.142C149.507,21.2 149.454,21.241 149.393,21.241C149.376,21.241 149.358,21.238 149.342,21.231C149.154,21.166 148.957,21.129 148.757,21.123C148.739,21.122 148.722,21.122 148.704,21.122C148.283,21.122 147.934,21.46 147.919,21.88L147.919,24.112C147.919,24.292 147.992,24.383 148.074,24.392L148.613,24.473C148.678,24.475 148.731,24.529 148.731,24.595C148.731,24.599 148.73,24.604 148.73,24.608L148.73,24.779C148.73,24.783 148.731,24.788 148.731,24.792C148.731,24.854 148.679,24.905 148.617,24.905C148.613,24.905 148.609,24.905 148.605,24.905L146.345,24.905C146.341,24.905 146.336,24.906 146.332,24.906C146.269,24.906 146.217,24.854 146.217,24.792C146.217,24.787 146.218,24.783 146.218,24.779L146.218,24.608C146.217,24.54 146.268,24.481 146.335,24.473L146.741,24.392C146.822,24.373 146.894,24.292 146.894,24.112L146.894,21.196C146.894,21.07 146.849,20.916 146.704,20.89L146.254,20.817C146.189,20.813 146.138,20.758 146.138,20.692C146.138,20.689 146.138,20.686 146.138,20.683L146.138,20.502C146.138,20.499 146.138,20.496 146.138,20.492C146.138,20.424 146.194,20.367 146.263,20.367C146.263,20.367 146.263,20.367 146.263,20.367L147.587,20.206C147.695,20.196 147.74,20.259 147.749,20.367C147.749,20.367 147.803,20.89 147.812,20.961L147.848,20.961C148.135,20.498 148.628,20.2 149.171,20.16C149.325,20.158 149.478,20.186 149.621,20.241C149.685,20.269 149.703,20.34 149.685,20.421L149.523,21.142Z" style="fill:rgb(42,42,41);fill-rule:nonzero;"/>
            </g>
            <g transform="matrix(3.46736,0,0,3.46736,312.75,430.694)">
                <path d="M152.42,24.86C152.186,24.956 151.935,25.008 151.682,25.013C151.637,25.019 151.592,25.022 151.547,25.022C151.018,25.022 150.584,24.587 150.584,24.059C150.584,24.014 150.587,23.968 150.593,23.923L150.593,21.186C150.593,21.06 150.548,20.908 150.404,20.88L150.035,20.809C149.945,20.79 149.917,20.746 149.917,20.683L149.917,20.502C149.917,20.499 149.917,20.496 149.917,20.493C149.917,20.424 149.974,20.367 150.043,20.367C150.043,20.367 150.043,20.367 150.043,20.367L151.466,20.206C151.473,20.205 151.479,20.204 151.486,20.204C151.553,20.204 151.611,20.255 151.619,20.322L151.619,23.815C151.619,24.122 151.746,24.302 152.015,24.302C152.117,24.301 152.218,24.279 152.312,24.239C152.357,24.221 152.457,24.239 152.465,24.365L152.501,24.707C152.511,24.77 152.478,24.832 152.42,24.86ZM152.285,18.9L150.953,19.944C150.92,19.967 150.877,19.967 150.845,19.944L150.628,19.719C150.606,19.69 150.606,19.649 150.628,19.62L151.637,18.279C151.717,18.162 151.847,18.089 151.988,18.08C152.242,18.111 152.447,18.306 152.492,18.558C152.476,18.697 152.401,18.822 152.285,18.9L152.285,18.9Z" style="fill:rgb(42,42,41);fill-rule:nonzero;"/>
            </g>
            <g transform="matrix(3.46736,0,0,3.46736,312.75,430.694)">
                <path d="M157.119,24.869C156.866,24.953 156.602,24.999 156.335,25.004C156.317,25.005 156.299,25.006 156.281,25.006C155.936,25.006 155.652,24.722 155.652,24.377C155.652,24.376 155.652,24.375 155.652,24.373L155.615,24.373C155.266,24.779 154.755,25.01 154.22,25.004C154.202,25.005 154.184,25.005 154.166,25.005C153.489,25.005 152.932,24.448 152.932,23.77C152.932,23.758 152.932,23.746 152.932,23.734C152.932,22.537 154.048,22.033 155.453,22.042C155.525,22.042 155.542,21.961 155.542,21.916L155.542,21.709C155.542,21.133 155.102,20.88 154.552,20.88C154.203,20.882 153.859,20.972 153.554,21.142C153.532,21.16 153.504,21.17 153.476,21.17C153.413,21.17 153.361,21.123 153.355,21.061L153.256,20.602C153.238,20.521 153.256,20.448 153.337,20.421C153.811,20.24 154.315,20.148 154.823,20.151C154.901,20.139 154.981,20.132 155.06,20.132C155.876,20.132 156.548,20.804 156.548,21.62C156.548,21.689 156.543,21.758 156.534,21.826L156.534,24.014C156.532,24.024 156.532,24.034 156.532,24.044C156.532,24.18 156.644,24.293 156.78,24.293C156.782,24.293 156.784,24.293 156.786,24.293C156.863,24.291 156.939,24.276 157.011,24.248C157.022,24.244 157.034,24.242 157.045,24.242C157.105,24.242 157.155,24.292 157.155,24.352C157.155,24.353 157.155,24.354 157.155,24.356L157.2,24.716C157.208,24.806 157.173,24.851 157.119,24.869ZM155.542,22.726C155.542,22.663 155.516,22.645 155.453,22.645C154.337,22.645 153.941,23.059 153.941,23.563C153.941,23.564 153.941,23.564 153.941,23.564C153.941,23.951 154.259,24.268 154.645,24.268C154.665,24.268 154.686,24.267 154.706,24.266C154.723,24.267 154.739,24.267 154.755,24.267C155.179,24.267 155.531,23.924 155.542,23.5L155.542,22.726Z" style="fill:rgb(42,42,41);fill-rule:nonzero;"/>
            </g>
            <g transform="matrix(3.46736,0,0,3.46736,312.75,430.694)">
                <path d="M164.607,24.833L163.283,24.995C163.184,25.004 163.139,24.95 163.13,24.86L163.076,24.32L163.04,24.32C162.677,24.734 162.159,24.981 161.609,25.004C160.619,24.904 159.857,24.061 159.857,23.066C159.857,22.988 159.861,22.911 159.871,22.834C159.864,22.762 159.861,22.69 159.861,22.618C159.861,21.317 160.931,20.246 162.232,20.246C162.28,20.246 162.327,20.248 162.374,20.251C162.574,20.249 162.773,20.27 162.968,20.314L162.968,19.215C162.968,19.089 162.923,18.936 162.779,18.909L162.41,18.837C162.32,18.819 162.292,18.774 162.292,18.711L162.292,18.531C162.292,18.527 162.292,18.524 162.292,18.521C162.292,18.452 162.348,18.396 162.417,18.396C162.418,18.396 162.419,18.396 162.419,18.396L163.832,18.234C163.839,18.233 163.845,18.232 163.852,18.232C163.92,18.232 163.977,18.283 163.986,18.351L163.986,24.004C163.986,24.13 164.031,24.292 164.175,24.32L164.616,24.392C164.706,24.41 164.733,24.455 164.733,24.518L164.733,24.698C164.733,24.701 164.733,24.704 164.733,24.708C164.733,24.776 164.677,24.833 164.608,24.833C164.607,24.833 164.607,24.833 164.607,24.833ZM162.968,21.511C162.968,21.079 162.635,20.908 162.194,20.908C161.294,20.908 160.943,21.709 160.943,22.564C160.943,23.329 161.257,24.203 162.068,24.203C162.096,24.206 162.124,24.207 162.153,24.207C162.59,24.207 162.953,23.856 162.968,23.419L162.968,21.511Z" style="fill:rgb(42,42,41);fill-rule:nonzero;"/>
            </g>
            <g transform="matrix(3.46736,0,0,3.46736,312.75,430.694)">
                <path d="M166.892,22.942C166.702,22.946 166.513,22.94 166.324,22.924C166.252,22.915 166.216,22.933 166.225,23.023C166.298,23.74 166.928,24.282 167.648,24.248C168,24.241 168.345,24.152 168.656,23.986C168.674,23.977 168.695,23.972 168.715,23.972C168.778,23.972 168.832,24.016 168.845,24.077L168.944,24.509C168.96,24.577 168.931,24.649 168.872,24.688C168.447,24.91 167.975,25.028 167.495,25.031C167.441,25.035 167.388,25.037 167.334,25.037C166.12,25.037 165.122,24.038 165.122,22.824C165.122,22.74 165.127,22.657 165.136,22.573C165.133,22.525 165.132,22.477 165.132,22.429C165.132,21.177 166.152,20.142 167.405,20.124C167.453,20.12 167.502,20.117 167.551,20.117C168.325,20.117 168.972,20.729 169.016,21.502C169.016,22.519 167.917,22.942 166.892,22.942ZM167.261,20.719C166.459,20.719 166.171,21.61 166.18,22.204C166.18,22.294 166.189,22.312 166.279,22.321C166.406,22.33 166.558,22.339 166.711,22.339C167.341,22.339 167.999,22.123 167.999,21.466C168.001,21.059 167.668,20.722 167.261,20.719L167.261,20.719Z" style="fill:rgb(42,42,41);fill-rule:nonzero;"/>
            </g>
            <g transform="matrix(3.46736,0,0,3.46736,312.75,430.694)">
                <path d="M176.675,24.743C176.666,24.824 176.63,24.905 176.568,24.905L172.201,24.905C172.197,24.905 172.193,24.905 172.189,24.905C172.121,24.905 172.065,24.85 172.065,24.782C172.065,24.778 172.065,24.774 172.066,24.769L172.066,24.58C172.061,24.505 172.117,24.438 172.192,24.428L172.669,24.337C172.759,24.32 172.832,24.229 172.832,24.032L172.832,19.701C172.832,19.503 172.759,19.413 172.669,19.395L172.192,19.296C172.117,19.286 172.061,19.219 172.066,19.143L172.066,18.963C172.065,18.959 172.065,18.955 172.065,18.951C172.065,18.883 172.121,18.827 172.189,18.827C172.193,18.827 172.197,18.828 172.201,18.828L176.441,18.828C176.504,18.828 176.549,18.9 176.549,18.981L176.549,20.106C176.55,20.111 176.55,20.115 176.55,20.119C176.55,20.182 176.499,20.233 176.436,20.233C176.432,20.233 176.428,20.233 176.423,20.232L176.18,20.232C176.11,20.229 176.053,20.176 176.044,20.106L175.964,19.746C175.933,19.6 175.797,19.5 175.649,19.512L174.091,19.512C174.09,19.512 174.089,19.512 174.087,19.512C174.031,19.512 173.984,19.559 173.984,19.616C173.984,19.617 173.984,19.619 173.984,19.62L173.984,21.223C173.984,21.224 173.984,21.225 173.984,21.227C173.984,21.284 174.031,21.331 174.087,21.331C174.089,21.331 174.09,21.331 174.091,21.331L176.144,21.331C176.148,21.33 176.152,21.33 176.157,21.33C176.219,21.33 176.271,21.381 176.271,21.444C176.271,21.448 176.27,21.452 176.27,21.457L176.27,21.916C176.27,21.92 176.271,21.925 176.271,21.929C176.271,21.991 176.219,22.043 176.157,22.043C176.153,22.043 176.148,22.042 176.144,22.042L174.091,22.042C174.09,22.042 174.089,22.042 174.087,22.042C174.031,22.042 173.984,22.089 173.984,22.146C173.984,22.147 173.984,22.148 173.984,22.15L173.984,23.896C173.984,24.148 174.109,24.211 174.281,24.211L175.811,24.211C175.971,24.223 176.117,24.116 176.154,23.959L176.234,23.608C176.242,23.541 176.301,23.49 176.369,23.491L176.621,23.491C176.703,23.491 176.756,23.536 176.748,23.617L176.675,24.743Z" style="fill:rgb(42,42,41);fill-rule:nonzero;"/>
            </g>
            <g transform="matrix(3.46736,0,0,3.46736,312.75,430.694)">
                <path d="M182.364,24.833L181.04,24.995C180.941,25.004 180.896,24.95 180.887,24.86L180.833,24.32L180.796,24.32C180.433,24.734 179.916,24.981 179.366,25.004C178.376,24.904 177.614,24.061 177.614,23.067C177.614,22.989 177.619,22.911 177.628,22.834C177.622,22.762 177.618,22.689 177.618,22.617C177.618,21.316 178.688,20.246 179.989,20.246C180.036,20.246 180.083,20.248 180.13,20.251C180.33,20.249 180.53,20.27 180.725,20.314L180.725,19.215C180.725,19.089 180.68,18.936 180.537,18.909L180.167,18.837C180.077,18.819 180.05,18.774 180.05,18.711L180.05,18.531C180.05,18.527 180.05,18.524 180.05,18.521C180.05,18.452 180.106,18.396 180.175,18.396C180.175,18.396 180.175,18.396 180.175,18.396L181.589,18.234C181.596,18.233 181.602,18.232 181.609,18.232C181.676,18.232 181.734,18.283 181.742,18.351L181.742,24.004C181.742,24.13 181.788,24.292 181.931,24.32L182.373,24.392C182.462,24.41 182.49,24.455 182.49,24.518L182.49,24.698C182.49,24.701 182.49,24.704 182.49,24.707C182.49,24.776 182.433,24.833 182.365,24.833C182.364,24.833 182.364,24.833 182.364,24.833ZM180.725,21.511C180.725,21.079 180.392,20.908 179.951,20.908C179.05,20.908 178.7,21.709 178.7,22.564C178.7,23.329 179.015,24.203 179.825,24.203C179.853,24.206 179.881,24.207 179.91,24.207C180.347,24.207 180.71,23.856 180.725,23.419L180.725,21.511Z" style="fill:rgb(42,42,41);fill-rule:nonzero;"/>
            </g>
            <g transform="matrix(3.46736,0,0,3.46736,312.75,430.694)">
                <path d="M187.925,24.869C187.676,24.954 187.414,24.999 187.151,25.004C187.12,25.008 187.089,25.011 187.058,25.011C186.704,25.011 186.412,24.719 186.412,24.364C186.412,24.355 186.412,24.346 186.413,24.337L186.386,24.337C185.995,24.757 185.447,24.998 184.873,25.004C184.846,25.006 184.818,25.006 184.79,25.006C184.04,25.006 183.423,24.389 183.423,23.639C183.423,23.626 183.423,23.613 183.423,23.6L183.423,21.186C183.423,21.06 183.378,20.908 183.235,20.88L182.866,20.817C182.797,20.812 182.744,20.752 182.748,20.683L182.748,20.502C182.748,20.499 182.748,20.496 182.748,20.493C182.748,20.424 182.805,20.367 182.874,20.367C182.874,20.367 182.874,20.367 182.874,20.367L184.289,20.206C184.295,20.205 184.302,20.204 184.308,20.204C184.376,20.204 184.433,20.255 184.441,20.322L184.441,23.212C184.435,23.252 184.433,23.292 184.433,23.333C184.433,23.825 184.838,24.23 185.33,24.23C185.343,24.23 185.356,24.23 185.369,24.229C185.395,24.232 185.422,24.233 185.449,24.233C185.924,24.233 186.318,23.849 186.332,23.374L186.332,21.186C186.332,21.06 186.287,20.908 186.142,20.88L185.773,20.817C185.708,20.813 185.656,20.758 185.656,20.692C185.656,20.689 185.656,20.686 185.657,20.683L185.657,20.502C185.656,20.499 185.656,20.496 185.656,20.493C185.656,20.424 185.713,20.367 185.782,20.367C185.782,20.367 185.782,20.367 185.783,20.367L187.205,20.206C187.211,20.205 187.218,20.204 187.224,20.204C187.292,20.204 187.35,20.255 187.358,20.322L187.358,24.004C187.358,24.176 187.439,24.292 187.592,24.292C187.672,24.291 187.751,24.276 187.826,24.248C187.898,24.229 187.953,24.266 187.961,24.355L188.006,24.716C188.015,24.806 187.98,24.851 187.925,24.869Z" style="fill:rgb(42,42,41);fill-rule:nonzero;"/>
            </g>
            <g transform="matrix(3.46736,0,0,3.46736,312.75,430.694)">
                <path d="M192.082,24.688C191.673,24.91 191.216,25.028 190.75,25.031C190.73,25.031 190.709,25.032 190.688,25.032C189.474,25.032 188.474,24.032 188.474,22.817C188.474,22.753 188.476,22.69 188.482,22.627C188.481,22.597 188.48,22.566 188.48,22.536C188.48,21.228 189.557,20.151 190.865,20.151C190.869,20.151 190.873,20.151 190.876,20.151C191.217,20.141 191.558,20.187 191.884,20.287C191.951,20.313 191.997,20.376 192.001,20.448L192.001,21.529C192.002,21.533 192.002,21.537 192.002,21.542C192.002,21.604 191.951,21.656 191.888,21.656C191.884,21.656 191.88,21.655 191.875,21.655L191.605,21.655C191.537,21.656 191.479,21.605 191.47,21.538L191.39,21.16C191.335,20.926 191.146,20.827 190.804,20.827C190.003,20.827 189.598,21.52 189.598,22.447C189.598,23.347 189.967,24.248 190.966,24.248C191.272,24.233 191.57,24.15 191.839,24.004C191.86,23.991 191.884,23.984 191.909,23.984C191.97,23.984 192.023,24.026 192.038,24.085L192.146,24.509C192.166,24.576 192.14,24.649 192.082,24.688Z" style="fill:rgb(42,42,41);fill-rule:nonzero;"/>
            </g>
            <g transform="matrix(3.46736,0,0,3.46736,312.75,430.694)">
                <path d="M196.871,24.869C196.618,24.953 196.354,24.999 196.087,25.004C196.07,25.005 196.052,25.006 196.034,25.006C195.688,25.006 195.404,24.722 195.404,24.376C195.404,24.375 195.404,24.374 195.404,24.373L195.368,24.373C195.018,24.779 194.507,25.01 193.972,25.004C193.954,25.005 193.936,25.005 193.918,25.005C193.241,25.005 192.684,24.448 192.684,23.771C192.684,23.759 192.685,23.747 192.685,23.734C192.685,22.537 193.801,22.033 195.206,22.042C195.278,22.042 195.295,21.961 195.295,21.916L195.295,21.709C195.295,21.133 194.855,20.88 194.305,20.88C193.955,20.882 193.612,20.971 193.306,21.142C193.284,21.16 193.257,21.17 193.228,21.17C193.166,21.17 193.113,21.122 193.108,21.061L193.009,20.602C192.991,20.521 193.009,20.448 193.089,20.421C193.564,20.24 194.068,20.148 194.576,20.151C194.654,20.139 194.733,20.132 194.813,20.132C195.629,20.132 196.3,20.804 196.3,21.62C196.3,21.689 196.295,21.757 196.286,21.826L196.286,24.014C196.284,24.024 196.284,24.034 196.284,24.044C196.284,24.18 196.396,24.293 196.533,24.293C196.535,24.293 196.537,24.293 196.539,24.293C196.616,24.291 196.692,24.276 196.763,24.248C196.774,24.244 196.786,24.242 196.797,24.242C196.858,24.242 196.908,24.292 196.908,24.353C196.908,24.354 196.908,24.355 196.908,24.356L196.953,24.716C196.96,24.806 196.925,24.851 196.871,24.869ZM195.295,22.726C195.295,22.663 195.269,22.645 195.206,22.645C194.089,22.645 193.693,23.059 193.693,23.563C193.693,23.564 193.693,23.564 193.693,23.565C193.693,23.951 194.011,24.268 194.397,24.268C194.417,24.268 194.438,24.267 194.458,24.266C194.475,24.267 194.491,24.267 194.508,24.267C194.932,24.267 195.284,23.925 195.295,23.5L195.295,22.726Z" style="fill:rgb(42,42,41);fill-rule:nonzero;"/>
            </g>
            <g transform="matrix(3.46736,0,0,3.46736,312.75,430.694)">
                <path d="M200.929,24.688C200.52,24.91 200.062,25.028 199.597,25.031C199.577,25.031 199.556,25.032 199.536,25.032C198.32,25.032 197.32,24.032 197.32,22.816C197.32,22.753 197.323,22.69 197.329,22.627C197.327,22.597 197.327,22.566 197.327,22.536C197.327,21.228 198.403,20.151 199.712,20.151C199.716,20.151 199.72,20.151 199.724,20.151C200.065,20.141 200.406,20.187 200.732,20.287C200.799,20.313 200.844,20.376 200.849,20.448L200.849,21.529C200.85,21.533 200.85,21.537 200.85,21.542C200.85,21.604 200.798,21.656 200.736,21.656C200.731,21.656 200.727,21.655 200.722,21.655L200.453,21.655C200.385,21.656 200.326,21.605 200.318,21.538L200.237,21.16C200.183,20.926 199.994,20.827 199.652,20.827C198.85,20.827 198.445,21.52 198.445,22.447C198.445,23.347 198.814,24.248 199.814,24.248C200.119,24.233 200.418,24.15 200.687,24.004C200.708,23.991 200.732,23.985 200.756,23.985C200.817,23.985 200.87,24.027 200.884,24.085L200.993,24.509C201.014,24.576 200.988,24.649 200.929,24.688Z" style="fill:rgb(42,42,41);fill-rule:nonzero;"/>
            </g>
            <g transform="matrix(3.46736,0,0,3.46736,312.75,430.694)">
                <path d="M204.052,24.86C203.818,24.956 203.567,25.008 203.314,25.013C203.269,25.019 203.224,25.022 203.178,25.022C202.65,25.022 202.215,24.587 202.215,24.058C202.215,24.013 202.218,23.968 202.224,23.923L202.224,21.186C202.224,21.06 202.179,20.908 202.036,20.88L201.666,20.809C201.577,20.79 201.549,20.746 201.549,20.683L201.549,20.502C201.549,20.499 201.549,20.496 201.549,20.493C201.549,20.424 201.606,20.367 201.674,20.367C201.675,20.367 201.675,20.367 201.675,20.367L203.098,20.206C203.105,20.205 203.111,20.204 203.117,20.204C203.185,20.204 203.243,20.255 203.251,20.322L203.251,23.815C203.251,24.122 203.376,24.302 203.647,24.302C203.749,24.301 203.851,24.279 203.945,24.239C203.99,24.221 204.088,24.239 204.097,24.365L204.133,24.707C204.143,24.77 204.11,24.832 204.052,24.86ZM202.729,19.476C202.707,19.478 202.686,19.48 202.664,19.48C202.354,19.48 202.098,19.224 202.098,18.914C202.098,18.903 202.098,18.892 202.099,18.882C202.099,18.877 202.099,18.873 202.099,18.868C202.099,18.548 202.363,18.284 202.683,18.284C202.704,18.284 202.726,18.285 202.747,18.288C203.179,18.288 203.386,18.522 203.386,18.873C203.387,18.881 203.387,18.889 203.387,18.898C203.387,19.218 203.123,19.481 202.803,19.481C202.779,19.481 202.754,19.479 202.729,19.476Z" style="fill:rgb(42,42,41);fill-rule:nonzero;"/>
            </g>
            <g transform="matrix(3.46736,0,0,3.46736,312.75,430.694)">
                <path d="M206.699,25.049C206.681,25.049 206.664,25.049 206.646,25.049C205.463,25.049 204.488,24.075 204.488,22.891C204.488,22.812 204.493,22.733 204.501,22.654C204.497,22.593 204.494,22.531 204.494,22.469C204.494,21.201 205.521,20.152 206.789,20.124C206.804,20.124 206.819,20.124 206.834,20.124C208.02,20.124 208.996,21.1 208.996,22.285C208.996,22.357 208.992,22.429 208.985,22.501C208.99,22.565 208.993,22.63 208.993,22.694C208.993,23.963 207.967,25.016 206.699,25.049ZM206.725,20.746C205.861,20.746 205.619,21.574 205.619,22.501C205.619,23.681 206.068,24.418 206.734,24.418C207.589,24.418 207.869,23.644 207.869,22.672C207.869,21.502 207.418,20.746 206.725,20.746L206.725,20.746ZM208.076,18.891L206.744,19.936C206.711,19.958 206.668,19.958 206.635,19.936L206.419,19.71C206.397,19.681 206.397,19.64 206.419,19.611L207.427,18.27C207.507,18.153 207.637,18.08 207.779,18.072C208.033,18.103 208.238,18.297 208.283,18.549C208.267,18.688 208.192,18.813 208.076,18.891Z" style="fill:rgb(42,42,41);fill-rule:nonzero;"/>
            </g>
            <g transform="matrix(3.46736,0,0,3.46736,312.75,430.694)">
                <path d="M214.763,24.905L212.638,24.905C212.634,24.905 212.629,24.905 212.625,24.905C212.563,24.905 212.511,24.854 212.511,24.792C212.511,24.787 212.512,24.783 212.512,24.779L212.512,24.608C212.511,24.54 212.562,24.481 212.629,24.473L213.035,24.392C213.115,24.373 213.187,24.292 213.187,24.112L213.187,21.943C213.187,21.931 213.188,21.919 213.188,21.906C213.188,21.368 212.745,20.925 212.207,20.925C211.716,20.925 211.297,21.294 211.234,21.781L211.234,24.112C211.234,24.292 211.306,24.373 211.386,24.392L211.792,24.473C211.86,24.482 211.91,24.54 211.91,24.608L211.91,24.779C211.91,24.783 211.91,24.787 211.91,24.792C211.91,24.854 211.859,24.906 211.796,24.906C211.792,24.906 211.787,24.905 211.783,24.905L209.658,24.905C209.654,24.905 209.649,24.905 209.645,24.905C209.583,24.905 209.532,24.854 209.532,24.792C209.532,24.788 209.532,24.783 209.533,24.779L209.533,24.608C209.531,24.54 209.582,24.481 209.65,24.473L210.054,24.392C210.136,24.373 210.207,24.292 210.207,24.112L210.207,21.186C210.207,21.06 210.162,20.908 210.019,20.88L209.578,20.809C209.508,20.803 209.456,20.742 209.46,20.673L209.46,20.502C209.46,20.499 209.46,20.496 209.46,20.493C209.46,20.424 209.517,20.367 209.585,20.367C209.586,20.367 209.586,20.367 209.586,20.367L210.919,20.206C211.017,20.196 211.063,20.25 211.072,20.34L211.126,20.835L211.162,20.835C211.57,20.407 212.136,20.163 212.728,20.16C212.767,20.157 212.806,20.155 212.844,20.155C213.596,20.155 214.215,20.774 214.215,21.525C214.215,21.535 214.214,21.546 214.214,21.556L214.214,24.112C214.214,24.292 214.286,24.373 214.367,24.392L214.772,24.473C214.839,24.481 214.89,24.54 214.889,24.608L214.889,24.779C214.89,24.783 214.89,24.787 214.89,24.791C214.89,24.854 214.838,24.905 214.776,24.905C214.771,24.905 214.767,24.905 214.763,24.905Z" style="fill:rgb(42,42,41);fill-rule:nonzero;"/>
            </g>
            <g transform="matrix(3.46736,0,0,3.46736,312.75,430.694)">
                <path d="M215.869,26.561C215.76,26.624 215.743,26.615 215.679,26.543L215.455,26.282C215.441,26.264 215.433,26.242 215.433,26.22C215.433,26.181 215.455,26.146 215.49,26.129C215.961,25.817 216.256,25.298 216.283,24.734C216.251,24.739 216.218,24.741 216.186,24.741C215.839,24.741 215.553,24.456 215.553,24.108C215.553,24.104 215.553,24.095 215.553,24.094C215.553,23.739 215.846,23.446 216.202,23.446C216.208,23.446 216.214,23.446 216.22,23.446C216.796,23.446 217.021,24.004 217.021,24.554C217.001,25.374 216.567,26.13 215.869,26.561Z" style="fill:rgb(42,42,41);fill-rule:nonzero;"/>
            </g>
            <g transform="matrix(3.46736,0,0,3.46736,312.75,426.694)">
                <path d="M119.653,28.796L119.175,28.895C119.085,28.913 119.013,29.003 119.013,29.201L119.013,32.091C119.027,32.191 119.034,32.292 119.034,32.393C119.034,33.58 118.058,34.556 116.871,34.556C116.811,34.556 116.751,34.554 116.691,34.549C116.625,34.555 116.558,34.558 116.491,34.558C115.353,34.558 114.417,33.622 114.417,32.484C114.417,32.404 114.422,32.324 114.431,32.244L114.431,29.201C114.431,29.003 114.359,28.913 114.269,28.895L113.792,28.796C113.717,28.786 113.661,28.719 113.665,28.643L113.665,28.463C113.665,28.459 113.665,28.455 113.665,28.451C113.665,28.383 113.72,28.327 113.788,28.327C113.792,28.327 113.796,28.328 113.8,28.328L116.214,28.328C116.218,28.328 116.222,28.327 116.226,28.327C116.294,28.327 116.35,28.383 116.35,28.451C116.35,28.455 116.349,28.459 116.349,28.463L116.349,28.643C116.353,28.719 116.297,28.786 116.222,28.796L115.745,28.895C115.656,28.913 115.583,29.003 115.583,29.201L115.583,32.235C115.583,33.126 115.925,33.82 116.79,33.82C117.717,33.82 117.995,33.09 117.995,32.163L117.995,29.201C117.995,29.003 117.924,28.913 117.833,28.895L117.367,28.796C117.291,28.786 117.235,28.719 117.24,28.643L117.24,28.463C117.239,28.459 117.239,28.455 117.239,28.451C117.239,28.383 117.295,28.327 117.362,28.327C117.366,28.327 117.37,28.328 117.374,28.328L119.644,28.328C119.648,28.328 119.652,28.327 119.656,28.327C119.724,28.327 119.779,28.383 119.779,28.451C119.779,28.455 119.779,28.459 119.779,28.463L119.779,28.643C119.783,28.719 119.728,28.786 119.653,28.796Z" style="fill:rgb(42,42,41);fill-rule:nonzero;"/>
            </g>
            <g transform="matrix(3.46736,0,0,3.46736,312.75,426.694)">
                <path d="M125.439,34.405L123.314,34.405C123.31,34.405 123.306,34.405 123.302,34.405C123.239,34.405 123.188,34.354 123.188,34.292C123.188,34.287 123.188,34.283 123.189,34.279L123.189,34.108C123.187,34.04 123.238,33.981 123.306,33.973L123.71,33.892C123.791,33.873 123.864,33.792 123.864,33.612L123.864,31.443C123.864,31.431 123.864,31.419 123.864,31.407C123.864,30.868 123.421,30.425 122.883,30.425C122.392,30.425 121.973,30.794 121.91,31.281L121.91,33.612C121.91,33.792 121.982,33.873 122.063,33.892L122.468,33.973C122.536,33.981 122.586,34.04 122.585,34.108L122.585,34.279C122.586,34.283 122.586,34.287 122.586,34.292C122.586,34.354 122.535,34.406 122.472,34.406C122.468,34.406 122.464,34.405 122.459,34.405L120.334,34.405C120.33,34.405 120.326,34.406 120.321,34.406C120.259,34.406 120.208,34.354 120.208,34.292C120.208,34.287 120.208,34.283 120.208,34.279L120.208,34.108C120.207,34.04 120.258,33.981 120.326,33.973L120.731,33.892C120.812,33.873 120.884,33.792 120.884,33.612L120.884,30.686C120.884,30.56 120.839,30.408 120.695,30.38L120.253,30.309C120.184,30.303 120.131,30.242 120.136,30.173L120.136,30.002C120.136,29.999 120.136,29.996 120.136,29.993C120.136,29.924 120.192,29.867 120.261,29.867C120.262,29.867 120.263,29.867 120.263,29.867L121.595,29.706C121.694,29.696 121.74,29.75 121.747,29.84L121.802,30.335L121.837,30.335C122.246,29.907 122.812,29.663 123.405,29.66C123.443,29.657 123.482,29.655 123.52,29.655C124.272,29.655 124.89,30.274 124.89,31.025C124.89,31.035 124.89,31.045 124.89,31.056L124.89,33.612C124.89,33.792 124.962,33.873 125.042,33.892L125.449,33.973C125.516,33.982 125.567,34.04 125.566,34.108L125.566,34.279C125.566,34.283 125.566,34.287 125.566,34.291C125.566,34.354 125.515,34.405 125.452,34.405C125.448,34.405 125.443,34.405 125.439,34.405Z" style="fill:rgb(42,42,41);fill-rule:nonzero;"/>
            </g>
            <g transform="matrix(3.46736,0,0,3.46736,312.75,426.694)">
                <path d="M128.318,34.36C128.083,34.456 127.833,34.508 127.58,34.513C127.535,34.519 127.49,34.522 127.445,34.522C126.916,34.522 126.481,34.087 126.481,33.559C126.481,33.513 126.484,33.468 126.491,33.423L126.491,30.686C126.491,30.56 126.446,30.408 126.302,30.38L125.933,30.309C125.843,30.29 125.816,30.246 125.816,30.183L125.816,30.002C125.816,29.999 125.815,29.996 125.815,29.992C125.815,29.924 125.872,29.867 125.941,29.867C125.941,29.867 125.941,29.867 125.941,29.867L127.364,29.706C127.37,29.705 127.377,29.704 127.384,29.704C127.451,29.704 127.509,29.755 127.517,29.822L127.517,33.315C127.517,33.622 127.643,33.802 127.914,33.802C128.016,33.801 128.117,33.779 128.21,33.739C128.255,33.721 128.355,33.739 128.363,33.865L128.4,34.207C128.409,34.27 128.376,34.332 128.318,34.36ZM126.996,28.976C126.974,28.979 126.952,28.98 126.93,28.98C126.62,28.98 126.364,28.724 126.364,28.413C126.364,28.403 126.364,28.392 126.365,28.382C126.365,28.378 126.365,28.373 126.365,28.369C126.365,28.048 126.629,27.784 126.95,27.784C126.971,27.784 126.992,27.785 127.013,27.788C127.041,27.783 127.069,27.781 127.097,27.781C127.402,27.781 127.653,28.032 127.653,28.338C127.653,28.349 127.653,28.361 127.652,28.373C127.652,28.381 127.652,28.39 127.652,28.398C127.652,28.718 127.389,28.981 127.069,28.981C127.045,28.981 127.02,28.979 126.996,28.976Z" style="fill:rgb(42,42,41);fill-rule:nonzero;"/>
            </g>
            <g transform="matrix(3.46736,0,0,3.46736,312.75,426.694)">
                <path d="M133.386,30.264L133.242,30.317C133.143,30.353 133.062,30.426 132.981,30.642L131.55,34.387C131.532,34.432 131.504,34.459 131.478,34.459L130.586,34.459C130.559,34.459 130.533,34.432 130.514,34.387L129.039,30.605C128.957,30.39 128.858,30.345 128.786,30.317L128.642,30.264C128.56,30.236 128.525,30.191 128.525,30.128L128.525,29.957C128.524,29.953 128.524,29.949 128.524,29.945C128.524,29.882 128.575,29.831 128.638,29.831C128.642,29.831 128.647,29.831 128.651,29.831L130.676,29.831C130.681,29.831 130.685,29.831 130.689,29.831C130.752,29.831 130.803,29.882 130.803,29.945C130.803,29.949 130.803,29.953 130.802,29.957L130.802,30.128C130.803,30.199 130.747,30.259 130.676,30.264L130.316,30.335C130.217,30.353 130.109,30.426 130.172,30.615L130.982,32.982C131.048,33.163 131.096,33.35 131.126,33.54L131.144,33.54C131.182,33.354 131.233,33.17 131.297,32.991L132.108,30.615C132.171,30.426 132.063,30.353 131.964,30.335L131.603,30.264C131.532,30.259 131.477,30.199 131.478,30.128L131.478,29.957C131.477,29.953 131.477,29.949 131.477,29.944C131.477,29.882 131.528,29.831 131.591,29.831C131.595,29.831 131.599,29.831 131.603,29.831L133.376,29.831C133.381,29.831 133.385,29.831 133.39,29.831C133.453,29.831 133.504,29.882 133.504,29.945C133.504,29.949 133.504,29.953 133.503,29.957L133.503,30.128C133.503,30.191 133.467,30.236 133.386,30.264Z" style="fill:rgb(42,42,41);fill-rule:nonzero;"/>
            </g>
            <g transform="matrix(3.46736,0,0,3.46736,312.75,426.694)">
                <path d="M135.518,32.442C135.329,32.446 135.139,32.44 134.951,32.424C134.878,32.415 134.843,32.433 134.851,32.523C134.925,33.24 135.554,33.781 136.274,33.748C136.626,33.741 136.972,33.652 137.283,33.486C137.301,33.477 137.322,33.472 137.342,33.472C137.404,33.472 137.459,33.516 137.472,33.577L137.571,34.009C137.586,34.078 137.557,34.149 137.498,34.188C137.073,34.411 136.601,34.528 136.121,34.531C136.067,34.535 136.014,34.537 135.96,34.537C134.746,34.537 133.748,33.538 133.748,32.324C133.748,32.24 133.753,32.157 133.762,32.073C133.759,32.025 133.758,31.977 133.758,31.929C133.758,30.677 134.778,29.642 136.031,29.624C136.079,29.62 136.128,29.617 136.177,29.617C136.951,29.617 137.599,30.229 137.642,31.002C137.642,32.019 136.544,32.442 135.518,32.442ZM135.887,30.219C135.085,30.219 134.798,31.11 134.806,31.704C134.806,31.794 134.816,31.812 134.906,31.821C135.032,31.83 135.185,31.839 135.337,31.839C135.968,31.839 136.625,31.623 136.625,30.966C136.627,30.559 136.294,30.222 135.887,30.219L135.887,30.219Z" style="fill:rgb(42,42,41);fill-rule:nonzero;"/>
            </g>
            <g transform="matrix(3.46736,0,0,3.46736,312.75,426.694)">
                <path d="M141.674,30.642C141.659,30.7 141.605,30.741 141.545,30.741C141.528,30.741 141.511,30.738 141.495,30.731C141.306,30.666 141.109,30.629 140.91,30.623C140.892,30.622 140.874,30.622 140.856,30.622C140.436,30.622 140.086,30.96 140.072,31.38L140.072,33.612C140.072,33.792 140.144,33.883 140.225,33.892L140.765,33.973C140.83,33.975 140.883,34.029 140.883,34.095C140.883,34.099 140.883,34.104 140.882,34.108L140.882,34.279C140.883,34.283 140.883,34.287 140.883,34.292C140.883,34.354 140.832,34.406 140.769,34.406C140.765,34.406 140.76,34.405 140.756,34.405L138.496,34.405C138.492,34.405 138.488,34.406 138.483,34.406C138.421,34.406 138.37,34.354 138.37,34.292C138.37,34.287 138.37,34.283 138.37,34.279L138.37,34.108C138.369,34.04 138.42,33.981 138.488,33.973L138.892,33.892C138.974,33.873 139.045,33.792 139.045,33.612L139.045,30.696C139.045,30.57 139,30.416 138.857,30.39L138.406,30.317C138.34,30.313 138.289,30.258 138.289,30.192C138.289,30.189 138.289,30.186 138.289,30.183L138.289,30.002C138.289,29.999 138.289,29.996 138.289,29.993C138.289,29.924 138.346,29.867 138.414,29.867C138.415,29.867 138.415,29.867 138.415,29.867L139.739,29.706C139.847,29.696 139.892,29.759 139.901,29.867C139.901,29.867 139.954,30.39 139.964,30.461L139.999,30.461C140.287,29.998 140.78,29.7 141.324,29.66C141.477,29.658 141.63,29.686 141.773,29.741C141.836,29.769 141.855,29.84 141.836,29.921L141.674,30.642Z" style="fill:rgb(42,42,41);fill-rule:nonzero;"/>
            </g>
            <g transform="matrix(3.46736,0,0,3.46736,312.75,426.694)">
                <path d="M143.735,34.504C143.336,34.503 142.94,34.448 142.556,34.342C142.481,34.322 142.426,34.257 142.42,34.18L142.42,33.198C142.419,33.193 142.419,33.187 142.419,33.181C142.419,33.121 142.469,33.071 142.529,33.071C142.535,33.071 142.541,33.071 142.546,33.072L142.798,33.072C142.871,33.072 142.915,33.117 142.933,33.198L143.015,33.514C143.078,33.748 143.347,33.873 143.753,33.873C144.212,33.873 144.609,33.622 144.609,33.198C144.609,32.829 144.33,32.64 143.951,32.487L143.402,32.262C142.85,32.121 142.458,31.625 142.448,31.056C142.521,30.259 143.197,29.642 143.997,29.642C144.054,29.642 144.111,29.645 144.167,29.651C144.521,29.646 144.874,29.697 145.211,29.804C145.285,29.823 145.338,29.89 145.337,29.966L145.337,30.858C145.338,30.862 145.338,30.866 145.338,30.87C145.338,30.938 145.283,30.993 145.215,30.993C145.211,30.993 145.207,30.993 145.203,30.993L144.996,30.993C144.932,30.993 144.887,30.956 144.861,30.867L144.789,30.588C144.734,30.372 144.509,30.264 144.158,30.264C143.798,30.264 143.419,30.443 143.419,30.804C143.419,31.137 143.69,31.281 144.033,31.425L144.554,31.641C145.147,31.792 145.573,32.317 145.599,32.928C145.535,33.816 144.787,34.512 143.898,34.512C143.843,34.512 143.789,34.509 143.735,34.504Z" style="fill:rgb(42,42,41);fill-rule:nonzero;"/>
            </g>
            <g transform="matrix(3.46736,0,0,3.46736,312.75,426.694)">
                <path d="M148.613,34.36C148.378,34.456 148.128,34.508 147.874,34.513C147.83,34.519 147.785,34.522 147.739,34.522C147.211,34.522 146.776,34.087 146.776,33.559C146.776,33.513 146.779,33.468 146.786,33.423L146.786,30.686C146.786,30.56 146.741,30.408 146.597,30.38L146.228,30.309C146.138,30.29 146.111,30.246 146.111,30.183L146.111,30.002C146.111,29.999 146.11,29.996 146.11,29.992C146.11,29.924 146.167,29.867 146.236,29.867C146.236,29.867 146.236,29.867 146.236,29.867L147.659,29.706C147.665,29.705 147.672,29.704 147.678,29.704C147.746,29.704 147.804,29.755 147.812,29.822L147.812,33.315C147.812,33.622 147.938,33.802 148.208,33.802C148.311,33.801 148.412,33.779 148.505,33.739C148.55,33.721 148.65,33.739 148.658,33.865L148.695,34.207C148.704,34.27 148.671,34.332 148.613,34.36ZM147.29,28.976C147.269,28.979 147.247,28.98 147.225,28.98C146.914,28.98 146.659,28.724 146.659,28.413C146.659,28.403 146.659,28.392 146.66,28.382C146.66,28.378 146.659,28.373 146.659,28.369C146.659,28.048 146.924,27.784 147.245,27.784C147.266,27.784 147.287,27.785 147.308,27.788C147.336,27.783 147.364,27.781 147.391,27.781C147.697,27.781 147.948,28.032 147.948,28.338C147.948,28.349 147.947,28.361 147.947,28.373C147.947,28.381 147.947,28.39 147.947,28.398C147.947,28.718 147.684,28.981 147.364,28.981C147.34,28.981 147.315,28.979 147.29,28.976Z" style="fill:rgb(42,42,41);fill-rule:nonzero;"/>
            </g>
            <g transform="matrix(3.46736,0,0,3.46736,312.75,426.694)">
                <path d="M153.798,34.333L152.474,34.495C152.374,34.504 152.33,34.45 152.322,34.36L152.267,33.82L152.231,33.82C151.868,34.234 151.35,34.481 150.8,34.504C149.81,34.404 149.048,33.561 149.048,32.566C149.048,32.489 149.053,32.411 149.062,32.334C149.055,32.262 149.052,32.189 149.052,32.117C149.052,30.816 150.122,29.746 151.423,29.746C151.47,29.746 151.518,29.748 151.565,29.751C151.765,29.749 151.964,29.77 152.16,29.814L152.16,28.715C152.16,28.589 152.115,28.436 151.97,28.409L151.601,28.337C151.511,28.319 151.484,28.274 151.484,28.211L151.484,28.031C151.484,28.027 151.483,28.024 151.483,28.021C151.483,27.952 151.54,27.896 151.608,27.896C151.609,27.896 151.609,27.896 151.61,27.896L153.023,27.734C153.029,27.733 153.036,27.732 153.043,27.732C153.11,27.732 153.168,27.783 153.176,27.851L153.176,33.504C153.176,33.63 153.222,33.792 153.366,33.82L153.806,33.892C153.896,33.91 153.923,33.955 153.923,34.018L153.923,34.198C153.924,34.201 153.924,34.204 153.924,34.208C153.924,34.276 153.867,34.333 153.798,34.333C153.798,34.333 153.798,34.333 153.798,34.333ZM152.16,31.011C152.16,30.579 151.826,30.408 151.384,30.408C150.485,30.408 150.133,31.209 150.133,32.064C150.133,32.829 150.449,33.703 151.259,33.703C151.287,33.706 151.316,33.707 151.344,33.707C151.781,33.707 152.144,33.356 152.16,32.919L152.16,31.011Z" style="fill:rgb(42,42,41);fill-rule:nonzero;"/>
            </g>
            <g transform="matrix(3.46736,0,0,3.46736,312.75,426.694)">
                <path d="M158.577,34.369C158.324,34.453 158.06,34.499 157.793,34.504C157.776,34.505 157.758,34.506 157.74,34.506C157.394,34.506 157.109,34.221 157.109,33.875C157.109,33.875 157.109,33.874 157.109,33.873L157.074,33.873C156.724,34.279 156.212,34.51 155.677,34.504C155.659,34.505 155.642,34.505 155.624,34.505C154.947,34.505 154.39,33.948 154.39,33.271C154.39,33.258 154.39,33.246 154.39,33.234C154.39,32.037 155.507,31.533 156.912,31.542C156.983,31.542 157.001,31.461 157.001,31.416L157.001,31.209C157.001,30.633 156.56,30.38 156.011,30.38C155.661,30.382 155.317,30.471 155.011,30.642C154.989,30.66 154.962,30.67 154.933,30.67C154.871,30.67 154.819,30.622 154.814,30.561L154.714,30.102C154.697,30.021 154.714,29.948 154.795,29.921C155.269,29.74 155.773,29.648 156.281,29.651C156.359,29.639 156.438,29.632 156.518,29.632C157.334,29.632 158.006,30.304 158.006,31.12C158.006,31.189 158.001,31.258 157.992,31.326L157.992,33.514C157.99,33.524 157.99,33.534 157.99,33.544C157.99,33.68 158.102,33.793 158.238,33.793C158.24,33.793 158.242,33.793 158.244,33.793C158.321,33.792 158.397,33.776 158.468,33.748C158.479,33.744 158.491,33.742 158.502,33.742C158.563,33.742 158.613,33.792 158.613,33.853C158.613,33.854 158.613,33.855 158.613,33.856L158.658,34.216C158.666,34.306 158.63,34.351 158.577,34.369ZM157.001,32.226C157.001,32.163 156.974,32.145 156.912,32.145C155.794,32.145 155.399,32.559 155.399,33.063C155.399,33.064 155.399,33.065 155.399,33.065C155.399,33.451 155.716,33.768 156.102,33.768C156.122,33.768 156.143,33.767 156.164,33.766C156.18,33.767 156.197,33.767 156.214,33.767C156.638,33.767 156.99,33.425 157.001,33L157.001,32.226Z" style="fill:rgb(42,42,41);fill-rule:nonzero;"/>
            </g>
            <g transform="matrix(3.46736,0,0,3.46736,312.75,426.694)">
                <path d="M163.77,34.333L162.447,34.495C162.347,34.504 162.302,34.45 162.293,34.36L162.24,33.82L162.203,33.82C161.84,34.234 161.322,34.481 160.772,34.504C159.783,34.404 159.021,33.561 159.021,32.567C159.021,32.489 159.025,32.411 159.035,32.334C159.028,32.262 159.025,32.189 159.025,32.117C159.025,30.816 160.095,29.746 161.395,29.746C161.442,29.746 161.49,29.748 161.537,29.751C161.737,29.749 161.936,29.77 162.131,29.814L162.131,28.715C162.131,28.589 162.086,28.436 161.943,28.409L161.574,28.337C161.483,28.319 161.457,28.274 161.457,28.211L161.457,28.031C161.456,28.027 161.456,28.024 161.456,28.021C161.456,27.952 161.512,27.896 161.581,27.896C161.581,27.896 161.581,27.896 161.582,27.896L162.996,27.734C163.002,27.733 163.009,27.732 163.015,27.732C163.083,27.732 163.14,27.783 163.148,27.851L163.148,33.504C163.148,33.63 163.194,33.792 163.337,33.82L163.779,33.892C163.869,33.91 163.896,33.955 163.896,34.018L163.896,34.198C163.896,34.201 163.896,34.204 163.896,34.207C163.896,34.276 163.84,34.333 163.771,34.333C163.771,34.333 163.77,34.333 163.77,34.333ZM162.131,31.011C162.131,30.579 161.798,30.408 161.357,30.408C160.457,30.408 160.106,31.209 160.106,32.064C160.106,32.829 160.421,33.703 161.231,33.703C161.259,33.706 161.288,33.707 161.316,33.707C161.753,33.707 162.116,33.356 162.131,32.919L162.131,31.011Z" style="fill:rgb(42,42,41);fill-rule:nonzero;"/>
            </g>
            <g transform="matrix(3.46736,0,0,3.46736,312.75,426.694)">
                <path d="M166.054,32.442C165.865,32.446 165.676,32.44 165.488,32.424C165.415,32.415 165.379,32.433 165.388,32.523C165.462,33.24 166.091,33.782 166.811,33.748C167.163,33.741 167.508,33.652 167.819,33.486C167.837,33.477 167.858,33.472 167.879,33.472C167.941,33.472 167.995,33.516 168.008,33.577L168.107,34.009C168.122,34.078 168.094,34.149 168.035,34.188C167.609,34.411 167.137,34.528 166.658,34.531C166.604,34.535 166.551,34.537 166.497,34.537C165.283,34.537 164.284,33.538 164.284,32.324C164.284,32.24 164.289,32.156 164.298,32.073C164.295,32.025 164.294,31.978 164.294,31.93C164.294,30.677 165.315,29.642 166.568,29.624C166.616,29.62 166.665,29.617 166.714,29.617C167.488,29.617 168.135,30.229 168.179,31.002C168.179,32.019 167.081,32.442 166.054,32.442ZM166.423,30.219C165.622,30.219 165.334,31.11 165.343,31.704C165.343,31.794 165.353,31.812 165.443,31.821C165.568,31.83 165.722,31.839 165.874,31.839C166.505,31.839 167.162,31.623 167.162,30.966C167.164,30.558 166.831,30.221 166.423,30.219Z" style="fill:rgb(42,42,41);fill-rule:nonzero;"/>
            </g>
            <g transform="matrix(3.46736,0,0,3.46736,312.75,426.694)">
                <path d="M170.419,34.504C170.021,34.503 169.624,34.448 169.24,34.342C169.165,34.322 169.111,34.257 169.105,34.18L169.105,33.198C169.104,33.193 169.104,33.187 169.104,33.181C169.104,33.121 169.153,33.071 169.214,33.071C169.22,33.071 169.225,33.071 169.231,33.072L169.484,33.072C169.555,33.072 169.6,33.117 169.619,33.198L169.699,33.514C169.762,33.748 170.033,33.873 170.437,33.873C170.896,33.873 171.292,33.622 171.292,33.198C171.292,32.829 171.013,32.64 170.636,32.487L170.086,32.262C169.535,32.121 169.143,31.625 169.132,31.056C169.205,30.259 169.881,29.642 170.681,29.642C170.737,29.642 170.794,29.645 170.851,29.651C171.205,29.646 171.558,29.697 171.896,29.804C171.97,29.822 172.023,29.89 172.022,29.966L172.022,30.858C172.022,30.862 172.023,30.866 172.023,30.87C172.023,30.938 171.967,30.993 171.9,30.993C171.896,30.993 171.891,30.993 171.887,30.993L171.679,30.993C171.617,30.993 171.572,30.956 171.544,30.867L171.472,30.588C171.419,30.372 171.194,30.264 170.843,30.264C170.482,30.264 170.105,30.443 170.105,30.804C170.105,31.137 170.375,31.281 170.716,31.425L171.239,31.641C171.831,31.792 172.257,32.317 172.283,32.928C172.219,33.815 171.472,34.512 170.582,34.512C170.528,34.512 170.473,34.509 170.419,34.504Z" style="fill:rgb(42,42,41);fill-rule:nonzero;"/>
            </g>
            <g transform="matrix(3.46736,0,0,3.46736,312.75,426.694)">
                <path d="M173.344,36.061C173.236,36.124 173.218,36.115 173.155,36.043L172.93,35.782C172.916,35.764 172.908,35.742 172.908,35.72C172.908,35.681 172.931,35.645 172.966,35.629C173.438,35.317 173.732,34.798 173.758,34.234C173.726,34.239 173.694,34.241 173.661,34.241C173.314,34.241 173.029,33.956 173.029,33.609C173.029,33.604 173.029,33.594 173.029,33.594C173.029,33.238 173.321,32.946 173.676,32.946C173.682,32.946 173.689,32.946 173.695,32.946C174.271,32.946 174.497,33.504 174.497,34.054C174.476,34.874 174.042,35.63 173.344,36.061Z" style="fill:rgb(42,42,41);fill-rule:nonzero;"/>
            </g>
            <g transform="matrix(3.46736,0,0,3.46736,312.75,426.694)">
                <path d="M182.093,34.225C181.62,34.415 181.117,34.518 180.608,34.531C180.564,34.533 180.521,34.534 180.477,34.534C178.809,34.534 177.436,33.161 177.436,31.492C177.436,31.446 177.437,31.399 177.439,31.353C177.437,31.314 177.437,31.276 177.437,31.237C177.437,29.546 178.829,28.153 180.521,28.153C180.568,28.153 180.615,28.155 180.662,28.157C181.077,28.163 181.491,28.214 181.895,28.31C181.964,28.334 182.011,28.399 182.012,28.472L182.012,29.777C182.013,29.782 182.013,29.786 182.013,29.79C182.013,29.853 181.961,29.904 181.899,29.904C181.895,29.904 181.89,29.904 181.886,29.903L181.571,29.903C181.503,29.904 181.445,29.854 181.436,29.787L181.346,29.291C181.292,28.985 180.941,28.877 180.509,28.877C179.185,28.877 178.699,30.029 178.699,31.191C178.699,32.541 179.365,33.73 180.869,33.73C181.213,33.717 181.552,33.641 181.869,33.504C181.885,33.498 181.902,33.495 181.919,33.495C181.984,33.495 182.042,33.54 182.057,33.604L182.156,34.036C182.181,34.105 182.155,34.184 182.093,34.225Z" style="fill:rgb(42,42,41);fill-rule:nonzero;"/>
            </g>
            <g transform="matrix(3.46736,0,0,3.46736,312.75,426.694)">
                <path d="M187.98,34.369C187.73,34.453 187.468,34.499 187.205,34.504C187.174,34.508 187.143,34.511 187.112,34.511C186.758,34.511 186.467,34.219 186.467,33.865C186.467,33.856 186.467,33.847 186.467,33.837L186.44,33.837C186.048,34.257 185.501,34.498 184.927,34.504C184.9,34.506 184.872,34.506 184.844,34.506C184.094,34.506 183.477,33.889 183.477,33.139C183.477,33.126 183.478,33.113 183.478,33.1L183.478,30.686C183.478,30.56 183.433,30.408 183.289,30.38L182.919,30.317C182.85,30.312 182.797,30.252 182.802,30.183L182.802,30.002C182.802,29.999 182.802,29.996 182.802,29.993C182.802,29.924 182.859,29.867 182.928,29.867C182.928,29.867 182.929,29.867 182.929,29.867L184.342,29.706C184.349,29.705 184.355,29.704 184.362,29.704C184.43,29.704 184.487,29.755 184.496,29.822L184.496,32.712C184.49,32.752 184.487,32.793 184.487,32.833C184.487,33.325 184.892,33.73 185.384,33.73C185.397,33.73 185.41,33.73 185.423,33.729C185.45,33.732 185.476,33.733 185.503,33.733C185.978,33.733 186.373,33.35 186.386,32.874L186.386,30.686C186.386,30.56 186.341,30.408 186.197,30.38L185.828,30.317C185.759,30.312 185.706,30.252 185.71,30.183L185.71,30.002C185.71,29.999 185.71,29.996 185.71,29.993C185.71,29.924 185.767,29.867 185.836,29.867C185.836,29.867 185.837,29.867 185.837,29.867L187.259,29.706C187.266,29.705 187.272,29.704 187.279,29.704C187.346,29.704 187.404,29.755 187.412,29.822L187.412,33.504C187.412,33.676 187.494,33.792 187.646,33.792C187.726,33.791 187.805,33.776 187.88,33.748C187.953,33.729 188.006,33.766 188.015,33.855L188.06,34.216C188.07,34.306 188.034,34.351 187.98,34.369Z" style="fill:rgb(42,42,41);fill-rule:nonzero;"/>
            </g>
            <g transform="matrix(3.46736,0,0,3.46736,312.75,426.694)">
                <path d="M190.859,34.369C190.619,34.457 190.366,34.503 190.111,34.504C190.068,34.51 190.025,34.512 189.982,34.512C189.45,34.512 189.012,34.075 189.012,33.542C189.012,33.497 189.015,33.451 189.022,33.405L189.022,28.715C189.022,28.589 188.977,28.436 188.833,28.409L188.464,28.337C188.374,28.319 188.347,28.274 188.347,28.211L188.347,28.031C188.347,28.027 188.347,28.024 188.347,28.021C188.347,27.952 188.403,27.896 188.471,27.896C188.472,27.896 188.472,27.896 188.472,27.896L189.895,27.734C189.902,27.733 189.908,27.732 189.915,27.732C189.982,27.732 190.04,27.783 190.048,27.851L190.048,33.297C190.048,33.603 190.174,33.774 190.445,33.774C190.549,33.773 190.652,33.754 190.75,33.721C190.762,33.717 190.773,33.715 190.785,33.715C190.845,33.715 190.894,33.764 190.894,33.824C190.894,33.826 190.894,33.827 190.894,33.828L190.939,34.216C190.954,34.279 190.92,34.345 190.859,34.369Z" style="fill:rgb(42,42,41);fill-rule:nonzero;"/>
            </g>
            <g transform="matrix(3.46736,0,0,3.46736,312.75,426.694)">
                <path d="M194.269,34.279C193.931,34.424 193.567,34.501 193.199,34.504C193.167,34.506 193.134,34.507 193.102,34.507C192.388,34.507 191.8,33.92 191.8,33.205C191.8,33.176 191.801,33.147 191.803,33.117L191.803,30.615C191.803,30.559 191.76,30.512 191.705,30.507L191.11,30.507C191.056,30.507 191.038,30.461 191.046,30.39L191.101,29.948C191.101,29.913 191.128,29.867 191.164,29.867L191.731,29.867C191.812,29.867 191.839,29.813 191.839,29.741L191.839,29.138C191.839,29.039 191.857,28.967 191.956,28.931L192.676,28.67C192.785,28.634 192.82,28.67 192.82,28.778L192.82,29.769C192.82,29.823 192.865,29.867 192.919,29.867L194.054,29.867C194.092,29.87 194.123,29.901 194.125,29.939L194.125,30.435C194.12,30.471 194.091,30.501 194.054,30.507L192.937,30.507C192.935,30.507 192.933,30.507 192.932,30.507C192.872,30.507 192.822,30.555 192.82,30.615L192.82,32.883C192.82,33.37 193.064,33.729 193.568,33.729C193.756,33.722 193.942,33.682 194.117,33.612C194.131,33.606 194.146,33.603 194.161,33.603C194.222,33.603 194.274,33.651 194.279,33.711L194.351,34.108C194.367,34.177 194.333,34.248 194.269,34.279Z" style="fill:rgb(42,42,41);fill-rule:nonzero;"/>
            </g>
            <g transform="matrix(3.46736,0,0,3.46736,312.75,426.694)">
                <path d="M199.859,34.369C199.609,34.454 199.348,34.499 199.084,34.504C199.054,34.508 199.023,34.511 198.992,34.511C198.637,34.511 198.346,34.219 198.346,33.864C198.346,33.855 198.346,33.846 198.346,33.837L198.32,33.837C197.928,34.257 197.381,34.498 196.807,34.504C196.779,34.506 196.751,34.506 196.723,34.506C195.973,34.506 195.356,33.889 195.356,33.139C195.356,33.126 195.356,33.113 195.357,33.1L195.357,30.686C195.357,30.56 195.312,30.408 195.168,30.38L194.799,30.317C194.73,30.312 194.677,30.252 194.682,30.183L194.682,30.002C194.682,29.999 194.682,29.996 194.682,29.993C194.682,29.924 194.739,29.867 194.808,29.867C194.808,29.867 194.808,29.867 194.808,29.867L196.222,29.706C196.229,29.705 196.235,29.704 196.242,29.704C196.309,29.704 196.367,29.755 196.374,29.822L196.374,32.712C196.369,32.752 196.366,32.792 196.366,32.833C196.366,33.325 196.772,33.73 197.264,33.73C197.277,33.73 197.289,33.73 197.302,33.729C197.329,33.732 197.356,33.733 197.382,33.733C197.858,33.733 198.252,33.349 198.265,32.874L198.265,30.686C198.265,30.56 198.22,30.408 198.076,30.38L197.707,30.317C197.641,30.313 197.59,30.258 197.59,30.192C197.59,30.189 197.59,30.186 197.59,30.183L197.59,30.002C197.59,29.999 197.59,29.996 197.59,29.993C197.59,29.924 197.647,29.867 197.715,29.867C197.716,29.867 197.716,29.867 197.716,29.867L199.138,29.706C199.145,29.705 199.151,29.704 199.158,29.704C199.226,29.704 199.283,29.755 199.291,29.822L199.291,33.504C199.291,33.676 199.373,33.792 199.526,33.792C199.606,33.791 199.685,33.776 199.759,33.748C199.832,33.729 199.886,33.766 199.895,33.855L199.94,34.216C199.949,34.306 199.914,34.351 199.859,34.369Z" style="fill:rgb(42,42,41);fill-rule:nonzero;"/>
            </g>
            <g transform="matrix(3.46736,0,0,3.46736,312.75,426.694)">
                <path d="M203.683,30.642C203.668,30.7 203.614,30.741 203.554,30.741C203.537,30.741 203.519,30.738 203.503,30.731C203.315,30.666 203.117,30.629 202.917,30.623C202.9,30.622 202.882,30.622 202.864,30.622C202.444,30.622 202.094,30.96 202.081,31.38L202.081,33.612C202.081,33.792 202.153,33.883 202.234,33.892L202.774,33.973C202.839,33.975 202.892,34.029 202.892,34.095C202.892,34.099 202.891,34.104 202.891,34.108L202.891,34.279C202.892,34.283 202.892,34.287 202.892,34.292C202.892,34.354 202.84,34.406 202.778,34.406C202.774,34.406 202.769,34.405 202.765,34.405L200.505,34.405C200.501,34.405 200.497,34.406 200.492,34.406C200.43,34.406 200.379,34.354 200.379,34.292C200.379,34.287 200.379,34.283 200.379,34.279L200.379,34.108C200.378,34.04 200.428,33.982 200.495,33.973L200.902,33.892C200.982,33.873 201.054,33.792 201.054,33.612L201.054,30.696C201.054,30.57 201.009,30.416 200.865,30.39L200.415,30.317C200.346,30.312 200.293,30.252 200.298,30.183L200.298,30.002C200.298,29.999 200.298,29.996 200.298,29.993C200.298,29.924 200.354,29.867 200.423,29.867C200.424,29.867 200.424,29.867 200.424,29.867L201.747,29.706C201.855,29.696 201.901,29.759 201.91,29.867C201.91,29.867 201.964,30.39 201.972,30.461L202.009,30.461C202.296,29.998 202.788,29.7 203.331,29.66C203.486,29.658 203.639,29.686 203.783,29.741C203.845,29.769 203.863,29.84 203.845,29.921L203.683,30.642Z" style="fill:rgb(42,42,41);fill-rule:nonzero;"/>
            </g>
            <g transform="matrix(3.46736,0,0,3.46736,312.75,426.694)">
                <path d="M208.427,34.369C208.175,34.453 207.91,34.499 207.644,34.504C207.626,34.505 207.608,34.506 207.589,34.506C207.244,34.506 206.959,34.222 206.959,33.876C206.959,33.875 206.959,33.874 206.959,33.873L206.923,33.873C206.574,34.279 206.063,34.51 205.528,34.504C205.51,34.505 205.492,34.505 205.475,34.505C204.797,34.505 204.24,33.948 204.24,33.271C204.24,33.258 204.24,33.246 204.241,33.234C204.241,32.037 205.357,31.533 206.761,31.542C206.833,31.542 206.851,31.461 206.851,31.416L206.851,31.209C206.851,30.633 206.41,30.38 205.861,30.38C205.511,30.382 205.167,30.472 204.862,30.642C204.84,30.66 204.812,30.67 204.784,30.67C204.721,30.67 204.669,30.622 204.664,30.561L204.564,30.102C204.546,30.021 204.564,29.948 204.646,29.921C205.12,29.74 205.623,29.648 206.13,29.651C206.209,29.639 206.288,29.632 206.368,29.632C207.184,29.632 207.856,30.304 207.856,31.12C207.856,31.189 207.851,31.258 207.841,31.326L207.841,33.514C207.84,33.524 207.839,33.533 207.839,33.543C207.839,33.68 207.952,33.793 208.089,33.793C208.09,33.793 208.092,33.793 208.093,33.793C208.17,33.791 208.247,33.776 208.319,33.748C208.33,33.744 208.341,33.742 208.353,33.742C208.413,33.742 208.462,33.792 208.462,33.852C208.462,33.853 208.462,33.854 208.462,33.856L208.507,34.216C208.517,34.306 208.481,34.351 208.427,34.369ZM206.851,32.226C206.851,32.163 206.824,32.145 206.761,32.145C205.645,32.145 205.248,32.559 205.248,33.063C205.248,33.064 205.248,33.064 205.248,33.064C205.248,33.451 205.566,33.768 205.952,33.768C205.973,33.768 205.994,33.767 206.014,33.766C206.031,33.767 206.047,33.767 206.063,33.767C206.488,33.767 206.84,33.424 206.851,33L206.851,32.226Z" style="fill:rgb(42,42,41);fill-rule:nonzero;"/>
            </g>
            <g transform="matrix(3.46736,0,0,3.46736,312.75,426.694)">
                <path d="M215.816,30.264L215.671,30.317C215.573,30.353 215.492,30.416 215.411,30.642L214.087,34.378C213.736,35.368 213.124,36.259 212.026,36.259C211.817,36.265 211.61,36.231 211.414,36.16C211.35,36.138 211.312,36.073 211.324,36.007L211.431,35.503C211.45,35.404 211.531,35.35 211.603,35.377C211.755,35.44 211.916,35.476 212.08,35.485C212.655,35.42 213.121,34.977 213.214,34.405L213.169,34.405C213.08,34.405 213.052,34.342 213.016,34.269L211.45,30.605C211.359,30.39 211.269,30.345 211.197,30.317L211.053,30.264C210.972,30.236 210.937,30.191 210.937,30.128L210.937,29.957C210.936,29.953 210.936,29.949 210.936,29.944C210.936,29.882 210.987,29.831 211.05,29.831C211.054,29.831 211.058,29.831 211.062,29.831L213.106,29.831C213.11,29.831 213.115,29.831 213.119,29.831C213.181,29.831 213.233,29.882 213.233,29.945C213.233,29.949 213.232,29.953 213.232,29.957L213.232,30.128C213.232,30.199 213.177,30.259 213.106,30.264L212.746,30.335C212.647,30.353 212.53,30.426 212.602,30.615L213.501,32.937C213.572,33.118 213.626,33.305 213.664,33.496L213.682,33.496C213.716,33.303 213.764,33.113 213.826,32.928L214.546,30.615C214.561,30.587 214.568,30.557 214.568,30.526C214.568,30.427 214.492,30.344 214.394,30.335L214.033,30.264C213.964,30.258 213.911,30.198 213.915,30.128L213.915,29.957C213.915,29.953 213.915,29.949 213.915,29.945C213.915,29.882 213.967,29.831 214.029,29.831C214.034,29.831 214.038,29.831 214.042,29.831L215.806,29.831C215.811,29.831 215.815,29.831 215.82,29.831C215.882,29.831 215.934,29.882 215.934,29.945C215.934,29.949 215.934,29.953 215.933,29.957L215.933,30.128C215.933,30.191 215.897,30.236 215.816,30.264Z" style="fill:rgb(42,42,41);fill-rule:nonzero;"/>
            </g>
            <g transform="matrix(3.46736,0,0,3.46736,312.75,426.694)">
                <path d="M220.845,34.405L218.703,34.405C218.699,34.405 218.695,34.405 218.691,34.405C218.623,34.405 218.567,34.35 218.567,34.282C218.567,34.278 218.567,34.274 218.568,34.269L218.568,34.08C218.563,34.005 218.619,33.938 218.694,33.928L219.171,33.837C219.261,33.82 219.333,33.729 219.333,33.532L219.333,29.201C219.333,29.003 219.261,28.913 219.171,28.895L218.694,28.796C218.619,28.786 218.563,28.719 218.568,28.643L218.568,28.463C218.567,28.459 218.567,28.455 218.567,28.451C218.567,28.383 218.623,28.327 218.69,28.327C218.695,28.327 218.699,28.328 218.703,28.328L221.242,28.328C223.213,28.328 224.357,29.273 224.357,31.218C224.357,33.108 223.087,34.405 220.845,34.405ZM221.124,28.994L220.593,28.994C220.592,28.994 220.591,28.994 220.589,28.994C220.533,28.994 220.486,29.041 220.486,29.098C220.486,29.099 220.486,29.101 220.486,29.102L220.486,33.415C220.486,33.658 220.611,33.721 220.783,33.721L220.998,33.721C222.232,33.721 223.115,33.045 223.115,31.335C223.115,29.813 222.456,28.994 221.124,28.994Z" style="fill:rgb(42,42,41);fill-rule:nonzero;"/>
            </g>
            <g transform="matrix(3.46736,0,0,3.46736,312.75,426.694)">
                <path d="M226.929,32.442C226.74,32.446 226.551,32.44 226.363,32.424C226.29,32.415 226.254,32.433 226.263,32.523C226.337,33.24 226.966,33.782 227.686,33.748C228.038,33.741 228.383,33.652 228.694,33.486C228.712,33.477 228.733,33.472 228.754,33.472C228.816,33.472 228.87,33.516 228.883,33.577L228.982,34.009C228.997,34.078 228.969,34.149 228.91,34.188C228.484,34.411 228.012,34.528 227.533,34.531C227.479,34.535 227.426,34.537 227.372,34.537C226.158,34.537 225.159,33.538 225.159,32.324C225.159,32.24 225.164,32.156 225.173,32.073C225.17,32.025 225.169,31.978 225.169,31.93C225.169,30.677 226.19,29.642 227.443,29.624C227.491,29.62 227.54,29.617 227.589,29.617C228.363,29.617 229.01,30.229 229.054,31.002C229.054,32.019 227.956,32.442 226.929,32.442ZM227.298,30.219C226.497,30.219 226.209,31.11 226.218,31.704C226.218,31.794 226.228,31.812 226.318,31.821C226.443,31.83 226.597,31.839 226.749,31.839C227.38,31.839 228.037,31.623 228.037,30.966C228.039,30.558 227.706,30.221 227.298,30.219Z" style="fill:rgb(42,42,41);fill-rule:nonzero;"/>
            </g>
            <g transform="matrix(3.46736,0,0,3.46736,312.75,426.694)">
                <path d="M232.06,34.405C231.864,34.403 231.668,34.385 231.474,34.351L231.474,35.413C231.474,35.593 231.546,35.674 231.627,35.683L232.167,35.764C232.233,35.767 232.285,35.821 232.285,35.886C232.285,35.891 232.285,35.895 232.285,35.899L232.285,36.07C232.285,36.075 232.285,36.079 232.285,36.083C232.285,36.146 232.234,36.197 232.172,36.197C232.167,36.197 232.163,36.197 232.159,36.196L229.899,36.196C229.895,36.197 229.89,36.197 229.886,36.197C229.823,36.197 229.772,36.146 229.772,36.083C229.772,36.079 229.772,36.075 229.773,36.07L229.773,35.899C229.772,35.831 229.823,35.773 229.89,35.764L230.295,35.683C230.376,35.665 230.449,35.593 230.449,35.413L230.449,30.686C230.449,30.56 230.404,30.408 230.259,30.38L229.818,30.309C229.749,30.303 229.696,30.242 229.701,30.173L229.701,30.002C229.7,29.999 229.7,29.996 229.7,29.993C229.7,29.924 229.757,29.867 229.826,29.867C229.826,29.867 229.827,29.867 229.828,29.867L231.16,29.706C231.258,29.696 231.304,29.75 231.312,29.84L231.367,30.335L231.402,30.335C231.773,29.922 232.297,29.678 232.852,29.66C233.85,29.722 234.639,30.561 234.639,31.561C234.639,31.636 234.634,31.711 234.625,31.785C234.631,31.855 234.634,31.925 234.634,31.995C234.634,33.32 233.544,34.41 232.219,34.41C232.166,34.41 232.113,34.408 232.06,34.405ZM232.393,30.461C232.361,30.458 232.329,30.456 232.296,30.456C231.858,30.456 231.492,30.806 231.474,31.245L231.474,33.153C231.474,33.532 231.708,33.748 232.231,33.748C233.203,33.748 233.545,32.91 233.545,32.046C233.545,31.236 233.203,30.461 232.393,30.461Z" style="fill:rgb(42,42,41);fill-rule:nonzero;"/>
            </g>
            <g transform="matrix(3.46736,0,0,3.46736,312.75,426.694)">
                <path d="M237.504,34.549C237.489,34.549 237.473,34.549 237.458,34.549C236.271,34.549 235.295,33.573 235.295,32.387C235.295,32.309 235.3,32.232 235.308,32.154C235.303,32.093 235.301,32.031 235.301,31.969C235.301,30.701 236.328,29.652 237.595,29.624C237.612,29.624 237.628,29.624 237.645,29.624C238.828,29.624 239.802,30.597 239.802,31.781C239.802,31.854 239.798,31.928 239.79,32.001C239.796,32.065 239.798,32.13 239.798,32.194C239.798,33.463 238.773,34.516 237.504,34.549ZM237.532,30.246C236.667,30.246 236.424,31.065 236.424,32.001C236.424,33.181 236.874,33.918 237.54,33.918C238.396,33.918 238.675,33.144 238.675,32.172C238.675,31.002 238.224,30.246 237.532,30.246Z" style="fill:rgb(42,42,41);fill-rule:nonzero;"/>
            </g>
            <g transform="matrix(3.46736,0,0,3.46736,312.75,426.694)">
                <path d="M243.652,30.642C243.636,30.7 243.583,30.741 243.522,30.741C243.504,30.741 243.487,30.738 243.471,30.731C243.283,30.666 243.086,30.629 242.886,30.623C242.868,30.622 242.85,30.622 242.833,30.622C242.412,30.622 242.063,30.96 242.048,31.38L242.048,33.612C242.048,33.792 242.121,33.883 242.203,33.892L242.742,33.973C242.807,33.975 242.859,34.029 242.859,34.095C242.859,34.099 242.859,34.104 242.859,34.108L242.859,34.279C242.859,34.283 242.86,34.288 242.86,34.292C242.86,34.354 242.808,34.405 242.746,34.405C242.742,34.405 242.738,34.405 242.734,34.405L240.474,34.405C240.469,34.405 240.465,34.406 240.46,34.406C240.398,34.406 240.346,34.354 240.346,34.292C240.346,34.287 240.347,34.283 240.347,34.279L240.347,34.108C240.346,34.04 240.397,33.981 240.464,33.973L240.869,33.892C240.95,33.873 241.023,33.792 241.023,33.612L241.023,30.696C241.023,30.57 240.978,30.416 240.833,30.39L240.383,30.317C240.318,30.313 240.267,30.258 240.267,30.192C240.267,30.189 240.267,30.186 240.267,30.183L240.267,30.002C240.267,29.999 240.267,29.996 240.267,29.992C240.267,29.924 240.323,29.867 240.392,29.867C240.392,29.867 240.392,29.867 240.392,29.867L241.716,29.706C241.824,29.696 241.869,29.759 241.878,29.867C241.878,29.867 241.932,30.39 241.941,30.461L241.977,30.461C242.264,29.998 242.757,29.7 243.3,29.66C243.454,29.658 243.607,29.686 243.75,29.741C243.814,29.769 243.831,29.84 243.814,29.921L243.652,30.642Z" style="fill:rgb(42,42,41);fill-rule:nonzero;"/>
            </g>
            <g transform="matrix(3.46736,0,0,3.46736,312.75,426.694)">
                <path d="M247.377,34.279C247.039,34.424 246.675,34.501 246.306,34.504C246.274,34.506 246.242,34.507 246.21,34.507C245.496,34.507 244.908,33.919 244.908,33.205C244.908,33.176 244.909,33.146 244.911,33.117L244.911,30.615C244.911,30.559 244.868,30.512 244.812,30.507L244.218,30.507C244.164,30.507 244.146,30.461 244.155,30.39L244.208,29.948C244.208,29.913 244.236,29.867 244.271,29.867L244.839,29.867C244.919,29.867 244.947,29.813 244.947,29.741L244.947,29.138C244.947,29.039 244.964,28.967 245.064,28.931L245.785,28.67C245.892,28.634 245.928,28.67 245.928,28.778L245.928,29.769C245.929,29.822 245.973,29.867 246.027,29.867L247.162,29.867C247.2,29.87 247.231,29.901 247.234,29.939L247.234,30.435C247.228,30.472 247.199,30.501 247.162,30.507L246.045,30.507C246.043,30.507 246.041,30.507 246.04,30.507C245.98,30.507 245.93,30.555 245.928,30.615L245.928,32.883C245.928,33.37 246.171,33.729 246.675,33.729C246.864,33.722 247.049,33.682 247.224,33.612C247.238,33.606 247.253,33.603 247.269,33.603C247.33,33.603 247.381,33.651 247.386,33.711L247.458,34.108C247.474,34.177 247.441,34.248 247.377,34.279Z" style="fill:rgb(42,42,41);fill-rule:nonzero;"/>
            </g>
            <g transform="matrix(3.46736,0,0,3.46736,312.75,426.694)">
                <path d="M249.51,32.442C249.321,32.446 249.132,32.44 248.943,32.424C248.871,32.415 248.835,32.433 248.843,32.523C248.917,33.24 249.546,33.781 250.266,33.748C250.618,33.741 250.964,33.652 251.275,33.486C251.293,33.477 251.314,33.472 251.334,33.472C251.397,33.472 251.451,33.516 251.464,33.577L251.563,34.009C251.578,34.078 251.549,34.149 251.491,34.188C251.065,34.411 250.593,34.528 250.113,34.531C250.059,34.535 250.006,34.537 249.952,34.537C248.739,34.537 247.74,33.538 247.74,32.324C247.74,32.24 247.745,32.157 247.754,32.073C247.751,32.025 247.75,31.977 247.75,31.929C247.75,30.677 248.771,29.642 250.023,29.624C250.072,29.62 250.12,29.617 250.169,29.617C250.943,29.617 251.591,30.229 251.634,31.002C251.634,32.019 250.537,32.442 249.51,32.442ZM249.879,30.219C249.078,30.219 248.79,31.11 248.798,31.704C248.798,31.794 248.808,31.812 248.898,31.821C249.024,31.83 249.177,31.839 249.33,31.839C249.96,31.839 250.618,31.623 250.618,30.966C250.62,30.559 250.287,30.222 249.879,30.219Z" style="fill:rgb(42,42,41);fill-rule:nonzero;"/>
            </g>
            <g transform="matrix(3.46736,0,0,3.46736,312.75,426.694)">
                <path d="M253.874,34.504C253.476,34.503 253.08,34.448 252.696,34.342C252.621,34.322 252.566,34.257 252.56,34.18L252.56,33.198C252.559,33.193 252.559,33.187 252.559,33.182C252.559,33.121 252.609,33.071 252.67,33.071C252.675,33.071 252.681,33.071 252.687,33.072L252.939,33.072C253.011,33.072 253.056,33.117 253.074,33.198L253.155,33.514C253.218,33.748 253.488,33.873 253.893,33.873C254.352,33.873 254.748,33.622 254.748,33.198C254.748,32.829 254.469,32.64 254.091,32.487L253.542,32.262C252.991,32.121 252.598,31.625 252.587,31.056C252.66,30.259 253.336,29.642 254.136,29.642C254.193,29.642 254.25,29.645 254.307,29.651C254.661,29.646 255.014,29.697 255.351,29.804C255.426,29.822 255.478,29.89 255.478,29.966L255.478,30.858C255.478,30.862 255.479,30.866 255.479,30.87C255.479,30.938 255.423,30.993 255.356,30.993C255.351,30.993 255.347,30.993 255.342,30.993L255.135,30.993C255.072,30.993 255.027,30.956 255,30.867L254.928,30.588C254.875,30.372 254.65,30.264 254.298,30.264C253.938,30.264 253.56,30.443 253.56,30.804C253.56,31.137 253.83,31.281 254.172,31.425L254.695,31.641C255.287,31.792 255.713,32.318 255.739,32.928C255.675,33.815 254.928,34.512 254.038,34.512C253.983,34.512 253.929,34.509 253.874,34.504Z" style="fill:rgb(42,42,41);fill-rule:nonzero;"/>
            </g>
        </g>
        <g>
            <g transform="matrix(3.46736,0,0,3.46736,610,414)">
                <path d="M0.53,18.46L0.53,39.68L0.548,39.69C7.099,43.459 15.186,43.459 21.737,39.69L21.754,39.69L21.754,18.46L0.53,18.46Z" style="fill:rgb(0,47,135);fill-rule:nonzero;"/>
            </g>
            <g transform="matrix(3.46736,0,0,3.46736,610,414)">
                <path d="M10.613,3.718L11.674,3.718L11.674,2.391L13,2.391L13,1.331L11.674,1.331L11.674,0L10.613,0L10.613,1.331L9.284,1.331L9.284,2.391L10.613,2.391L10.613,3.718ZM17.51,5.567C17.166,5.566 16.824,5.603 16.488,5.676C15.035,4.347 12.903,4.047 11.14,4.922C9.379,4.047 7.248,4.347 5.798,5.676C5.462,5.602 5.118,5.565 4.774,5.565C2.155,5.565 -0,7.72 -0,10.339C-0,11.722 0.602,13.04 1.647,13.946C2.445,13.547 3.268,13.199 4.11,12.905C2.944,12.603 2.124,11.543 2.124,10.339C2.124,8.994 3.148,7.852 4.485,7.705C3.939,9.362 4.343,11.191 5.536,12.463C6.608,12.17 7.703,11.964 8.808,11.846L8.813,11.843C7.441,11.737 6.368,10.578 6.366,9.202C6.366,8.908 6.416,8.617 6.513,8.34C6.877,7.271 7.888,6.548 9.018,6.549C9.107,6.549 9.196,6.554 9.284,6.563C9.559,6.589 9.828,6.66 10.081,6.772L10.081,11.743C10.421,11.725 10.767,11.712 11.116,11.712C11.482,11.712 11.842,11.725 12.203,11.745L12.203,6.772C12.456,6.66 12.725,6.589 13,6.563C13.456,6.516 13.916,6.589 14.335,6.774C15.295,7.197 15.918,8.151 15.918,9.2C15.918,10.592 14.821,11.759 13.432,11.846L13.438,11.846C14.553,11.967 15.656,12.177 16.738,12.473C17.943,11.203 18.352,9.366 17.799,7.705C19.138,7.849 20.164,8.992 20.164,10.339C20.164,11.554 19.328,12.621 18.148,12.911C18.993,13.209 19.819,13.56 20.62,13.961C21.676,13.055 22.285,11.731 22.285,10.339C22.285,7.721 20.131,5.567 17.513,5.567C17.512,5.567 17.511,5.567 17.51,5.567M2.374,15.356L3.571,17.766C8.338,15.378 13.96,15.364 18.738,17.729L19.914,15.393C14.401,12.632 7.899,12.618 2.374,15.356" style="fill:rgb(245,168,0);fill-rule:nonzero;"/>
            </g>
            <g transform="matrix(3.46736,0,0,3.46736,610,414)">
                <path d="M7.661,21.645C7.238,21.234 6.555,21.234 6.132,21.645L3.714,23.987L10.081,23.987L7.661,21.645ZM16.154,21.645C15.73,21.234 15.046,21.234 14.621,21.645L12.203,23.987L18.57,23.987L16.154,21.645ZM16.154,26.658C15.729,26.248 15.046,26.248 14.621,26.658L12.203,29.001L18.57,29.001L16.154,26.658ZM7.661,26.658C7.238,26.248 6.555,26.248 6.132,26.658L3.714,29.001L10.081,29.001L7.661,26.658ZM10.321,36.694L7.905,39.035L14.272,39.035L11.853,36.694C11.429,36.284 10.746,36.284 10.321,36.694M7.702,31.672C7.279,31.261 6.595,31.261 6.172,31.672L3.755,34.016L10.121,34.016L7.702,31.672ZM14.661,31.672L12.244,34.016L18.61,34.016L16.193,31.672C15.769,31.261 15.085,31.261 14.661,31.672" style="fill:white;fill-rule:nonzero;"/>
            </g>
        </g>
        <g transform="matrix(1,0,0,1,-1,-6.94742)">
            <g transform="matrix(3.46736,0,0,3.46736,610,414)">
                <path d="M34.642,23.51L34.065,23.623C33.944,23.645 33.848,23.765 33.848,24.03L33.848,26.337C33.844,26.466 33.755,26.577 33.631,26.61C32.854,26.873 32.037,26.999 31.217,26.983C28.657,26.983 27.072,25.506 27.072,22.95C27.072,20.184 28.851,18.478 31.674,18.478C32.42,18.473 33.163,18.591 33.872,18.827C33.959,18.872 34.004,18.971 33.981,19.066L33.752,19.908C33.704,20.099 33.549,20.076 33.404,20.016C32.906,19.819 32.376,19.718 31.842,19.716C29.941,19.716 29.113,20.988 29.113,22.779C29.113,24.498 29.798,25.878 31.278,25.878C31.432,25.874 31.585,25.85 31.733,25.807C31.861,25.783 31.947,25.659 31.926,25.53L31.926,24.03C31.926,23.765 31.83,23.632 31.709,23.623L30.892,23.51C30.796,23.502 30.722,23.422 30.722,23.326C30.722,23.32 30.722,23.313 30.723,23.307L30.723,22.95C30.722,22.945 30.722,22.939 30.722,22.933C30.722,22.842 30.797,22.766 30.889,22.766C30.894,22.766 30.899,22.767 30.905,22.767L34.629,22.767C34.634,22.767 34.64,22.766 34.645,22.766C34.735,22.766 34.81,22.841 34.81,22.931C34.81,22.937 34.809,22.944 34.809,22.95L34.809,23.307C34.817,23.408 34.742,23.499 34.642,23.51" style="fill:rgb(42,42,41);fill-rule:nonzero;"/>
            </g>
            <g transform="matrix(3.46736,0,0,3.46736,610,414)">
                <path d="M38.632,27.009C38.591,27.01 38.55,27.011 38.508,27.011C36.882,27.011 35.544,25.673 35.544,24.046C35.544,23.96 35.547,23.874 35.555,23.788C35.551,23.723 35.549,23.658 35.549,23.593C35.549,21.836 36.994,20.389 38.752,20.388C38.798,20.385 38.844,20.384 38.891,20.384C40.507,20.384 41.837,21.714 41.837,23.33C41.837,23.415 41.833,23.5 41.826,23.585C41.83,23.651 41.832,23.717 41.832,23.784C41.832,25.543 40.392,26.995 38.632,27.009M38.691,21.351C37.717,21.351 37.441,22.298 37.441,23.584C37.441,25.59 38.151,26.048 38.691,26.048C39.664,26.048 39.941,25.074 39.941,23.787C39.941,21.783 39.231,21.35 38.691,21.35" style="fill:rgb(42,42,41);fill-rule:nonzero;"/>
            </g>
            <g transform="matrix(3.46736,0,0,3.46736,610,414)">
                <path d="M45.203,26.951C44.566,26.956 43.931,26.87 43.318,26.695C43.184,26.677 43.083,26.558 43.088,26.422L43.088,19.293C43.088,19.125 43.029,18.924 42.836,18.887L42.403,18.813C42.312,18.806 42.243,18.727 42.248,18.636L42.248,18.285C42.248,18.279 42.248,18.274 42.248,18.269C42.248,18.179 42.322,18.106 42.411,18.106C42.412,18.106 42.413,18.106 42.414,18.106L44.615,17.913C44.624,17.911 44.632,17.911 44.64,17.911C44.73,17.911 44.807,17.979 44.818,18.069L44.818,21.372L44.831,21.372C45.287,20.877 45.923,20.588 46.595,20.569C47.966,20.569 48.999,21.615 48.999,23.44C48.999,25.832 47.4,26.951 45.203,26.951M45.839,21.844C45.813,21.841 45.786,21.84 45.76,21.84C45.249,21.84 44.826,22.256 44.818,22.767L44.818,25.135C44.818,25.616 45.142,25.928 45.757,25.928C46.86,25.928 47.175,24.74 47.175,23.825C47.175,22.805 46.765,21.844 45.839,21.844" style="fill:rgb(42,42,41);fill-rule:nonzero;"/>
            </g>
            <g transform="matrix(3.46736,0,0,3.46736,610,414)">
                <path d="M53.037,26.757C52.705,26.893 52.352,26.969 51.994,26.983C50.683,26.983 50.285,26.338 50.285,25.364L50.285,21.88C50.285,21.71 50.227,21.507 50.031,21.47L49.602,21.397C49.509,21.39 49.438,21.309 49.443,21.217L49.443,20.869C49.443,20.865 49.443,20.862 49.443,20.858C49.443,20.765 49.519,20.687 49.613,20.686L51.812,20.495C51.82,20.494 51.828,20.493 51.836,20.493C51.927,20.493 52.004,20.561 52.016,20.652L52.016,25.266C52.016,25.673 52.188,25.904 52.544,25.904C52.665,25.903 52.784,25.879 52.895,25.832C52.918,25.82 53.074,25.784 53.098,25.999L53.145,26.553C53.159,26.637 53.114,26.721 53.037,26.757M51.127,19.741C51.085,19.747 51.043,19.75 51.001,19.75C50.516,19.75 50.117,19.351 50.117,18.866C50.117,18.86 50.117,18.855 50.117,18.85C50.118,18.35 50.529,17.939 51.029,17.939C51.074,17.939 51.118,17.942 51.162,17.949C51.859,17.949 52.172,18.311 52.172,18.827C52.172,19.415 51.752,19.741 51.127,19.741" style="fill:rgb(42,42,41);fill-rule:nonzero;"/>
            </g>
            <g transform="matrix(3.46736,0,0,3.46736,610,414)">
                <path d="M56.379,24.247C56.109,24.252 55.84,24.242 55.572,24.219C55.474,24.21 55.405,24.233 55.416,24.353C55.56,25.204 56.332,25.815 57.193,25.761C57.676,25.767 58.152,25.647 58.574,25.411C58.6,25.396 58.63,25.388 58.66,25.388C58.74,25.388 58.81,25.443 58.83,25.52L58.985,26.264C59.007,26.358 58.963,26.457 58.877,26.502C58.274,26.823 57.601,26.989 56.918,26.983C56.809,26.995 56.7,27.001 56.591,27.001C54.925,27.001 53.554,25.629 53.554,23.963C53.554,23.869 53.558,23.775 53.567,23.682C53.566,23.657 53.566,23.632 53.566,23.607C53.566,21.841 55.02,20.387 56.786,20.387C56.794,20.387 56.801,20.387 56.809,20.387C56.889,20.378 56.969,20.373 57.05,20.373C58.145,20.373 59.065,21.231 59.141,22.323C59.141,23.704 57.578,24.247 56.379,24.247M56.592,21.313C55.696,21.313 55.321,22.395 55.356,23.128C55.356,23.248 55.383,23.272 55.5,23.285C55.633,23.296 55.801,23.308 55.945,23.308C56.705,23.308 57.471,23.046 57.471,22.203C57.471,22.199 57.471,22.194 57.471,22.19C57.471,21.709 57.075,21.313 56.594,21.313C56.593,21.313 56.592,21.313 56.592,21.313" style="fill:rgb(42,42,41);fill-rule:nonzero;"/>
            </g>
            <g transform="matrix(3.46736,0,0,3.46736,610,414)">
                <path d="M64.621,22.01C64.598,22.088 64.525,22.142 64.444,22.142C64.421,22.142 64.399,22.138 64.378,22.13C64.147,22.067 63.909,22.035 63.67,22.035C63.645,22.033 63.62,22.032 63.596,22.032C63.035,22.032 62.569,22.485 62.554,23.046L62.554,25.674C62.554,25.916 62.65,26.036 62.758,26.049L63.478,26.145C63.565,26.15 63.633,26.223 63.633,26.31C63.633,26.314 63.632,26.318 63.632,26.322L63.632,26.649C63.633,26.655 63.633,26.661 63.633,26.668C63.633,26.751 63.565,26.819 63.482,26.819C63.477,26.819 63.472,26.819 63.467,26.819L60.15,26.819C60.145,26.819 60.14,26.819 60.134,26.819C60.05,26.819 59.981,26.75 59.981,26.666C59.981,26.66 59.981,26.654 59.982,26.649L59.982,26.322C59.982,26.232 60.05,26.155 60.139,26.145L60.617,26.049C60.728,26.023 60.822,25.916 60.822,25.674L60.822,21.88C60.822,21.709 60.764,21.494 60.572,21.47L60.019,21.386C59.927,21.378 59.857,21.297 59.863,21.205L59.863,20.869C59.863,20.864 59.863,20.86 59.863,20.855C59.863,20.763 59.938,20.686 60.031,20.686L62.107,20.495C62.242,20.484 62.289,20.581 62.3,20.7L62.424,21.687L62.468,21.687C62.793,20.976 63.481,20.496 64.26,20.436C64.444,20.431 64.628,20.46 64.801,20.521C64.885,20.556 64.896,20.627 64.873,20.76L64.621,22.01Z" style="fill:rgb(42,42,41);fill-rule:nonzero;"/>
            </g>
            <g transform="matrix(3.46736,0,0,3.46736,610,414)">
                <path d="M72.744,26.819L69.666,26.819C69.661,26.819 69.656,26.819 69.651,26.819C69.566,26.819 69.497,26.75 69.497,26.666C69.497,26.66 69.497,26.654 69.498,26.648L69.498,26.322C69.499,26.232 69.566,26.156 69.654,26.144L70.135,26.048C70.242,26.022 70.34,25.916 70.34,25.673L70.34,22.938C70.347,22.889 70.35,22.841 70.35,22.792C70.35,22.179 69.845,21.674 69.231,21.674C69.216,21.674 69.201,21.674 69.185,21.675C69.16,21.673 69.134,21.672 69.109,21.672C68.511,21.672 68.019,22.164 68.019,22.761C68.019,22.763 68.019,22.765 68.019,22.767L68.019,25.673C68.019,25.916 68.117,26.022 68.222,26.048L68.704,26.144C68.793,26.155 68.861,26.232 68.861,26.322L68.861,26.648C68.862,26.654 68.862,26.66 68.862,26.665C68.862,26.75 68.793,26.819 68.708,26.819C68.703,26.819 68.698,26.819 68.693,26.819L65.615,26.819C65.61,26.819 65.605,26.819 65.601,26.819C65.517,26.819 65.448,26.751 65.448,26.667C65.448,26.66 65.448,26.654 65.449,26.648L65.449,26.322C65.449,26.232 65.516,26.155 65.605,26.144L66.085,26.048C66.193,26.022 66.288,25.916 66.288,25.673L66.288,21.88C66.288,21.71 66.23,21.507 66.039,21.47L65.508,21.386C65.416,21.378 65.347,21.297 65.353,21.205L65.353,20.869C65.353,20.864 65.353,20.86 65.353,20.856C65.353,20.764 65.427,20.688 65.519,20.686L67.599,20.495C67.732,20.484 67.793,20.557 67.805,20.678L67.875,21.362L67.925,21.362C68.465,20.78 69.22,20.445 70.013,20.436C70.072,20.43 70.131,20.427 70.19,20.427C71.221,20.427 72.07,21.276 72.07,22.308C72.07,22.317 72.07,22.326 72.07,22.335L72.07,25.673C72.07,25.916 72.166,26.022 72.275,26.048L72.754,26.144C72.843,26.155 72.911,26.232 72.91,26.322L72.91,26.648C72.911,26.654 72.911,26.66 72.911,26.667C72.911,26.751 72.843,26.819 72.759,26.819C72.754,26.819 72.749,26.819 72.744,26.819" style="fill:rgb(42,42,41);fill-rule:nonzero;"/>
            </g>
            <g transform="matrix(3.46736,0,0,3.46736,610,414)">
                <path d="M76.442,27.009C76.401,27.01 76.36,27.011 76.319,27.011C74.694,27.011 73.356,25.673 73.356,24.048C73.356,23.961 73.36,23.874 73.367,23.788C73.363,23.723 73.362,23.658 73.362,23.594C73.362,21.836 74.807,20.389 76.564,20.388C76.611,20.385 76.657,20.384 76.704,20.384C78.32,20.384 79.649,21.714 79.649,23.33C79.649,23.415 79.646,23.5 79.638,23.585C79.642,23.65 79.644,23.716 79.644,23.781C79.644,25.542 78.203,26.995 76.442,27.008M76.503,21.351C75.528,21.351 75.253,22.298 75.253,23.584C75.253,25.59 75.96,26.048 76.503,26.048C77.474,26.048 77.752,25.074 77.752,23.787C77.752,21.783 77.042,21.35 76.503,21.35" style="fill:rgb(42,42,41);fill-rule:nonzero;"/>
            </g>
            <g transform="matrix(3.46736,0,0,3.46736,801,374.765)">
                <path d="M33.584,38.021L31.518,38.215C31.508,38.216 31.498,38.217 31.488,38.217C31.391,38.217 31.312,38.138 31.312,38.042C31.312,38.04 31.312,38.037 31.313,38.035L31.229,37.276L31.193,37.276C30.741,37.842 30.065,38.185 29.342,38.215C27.961,38.215 27.012,36.986 27.012,35.291C27.002,35.192 26.998,35.093 26.998,34.994C26.998,33.247 28.435,31.81 30.182,31.81C30.278,31.81 30.375,31.814 30.471,31.823C30.676,31.822 30.882,31.837 31.086,31.869L31.086,30.56C31.086,30.393 31.024,30.188 30.833,30.154L30.4,30.079C30.307,30.072 30.237,29.991 30.244,29.899L30.244,29.551C30.243,29.546 30.243,29.541 30.243,29.536C30.243,29.445 30.317,29.371 30.408,29.371C30.409,29.371 30.41,29.371 30.412,29.371L32.61,29.179C32.616,29.178 32.622,29.178 32.629,29.178C32.725,29.178 32.805,29.251 32.815,29.347L32.815,36.83C32.815,37.002 32.876,37.203 33.066,37.24L33.596,37.323C33.688,37.33 33.759,37.412 33.752,37.505L33.752,37.84C33.752,37.844 33.752,37.849 33.752,37.853C33.752,37.945 33.676,38.021 33.584,38.021C33.584,38.021 33.584,38.021 33.584,38.021M31.086,33.635C31.086,33.154 30.773,32.843 30.183,32.843C29.125,32.843 28.826,33.982 28.826,34.899C28.826,35.726 29.091,36.94 30.086,36.94C30.11,36.942 30.134,36.943 30.158,36.943C30.667,36.943 31.086,36.524 31.086,36.015C31.086,36.015 31.086,36.014 31.086,36.014L31.086,33.635Z" style="fill:rgb(42,42,41);fill-rule:nonzero;"/>
            </g>
            <g transform="matrix(3.46736,0,0,3.46736,801,374.765)">
                <path d="M36.971,35.511C36.702,35.515 36.434,35.506 36.167,35.484C36.071,35.474 35.998,35.496 36.011,35.617C36.156,36.468 36.929,37.078 37.791,37.023C38.273,37.027 38.748,36.908 39.172,36.676C39.198,36.661 39.227,36.652 39.258,36.652C39.337,36.652 39.406,36.708 39.423,36.785L39.578,37.528C39.601,37.622 39.557,37.722 39.471,37.767C38.868,38.089 38.194,38.254 37.512,38.249C37.404,38.261 37.296,38.266 37.188,38.266C35.519,38.266 34.147,36.893 34.147,35.225C34.147,35.132 34.151,35.038 34.16,34.945C34.159,34.921 34.159,34.896 34.159,34.872C34.159,33.106 35.612,31.653 37.377,31.653C37.387,31.653 37.396,31.653 37.406,31.653C37.485,31.644 37.566,31.639 37.646,31.639C38.739,31.639 39.658,32.495 39.737,33.585C39.737,34.969 38.176,35.511 36.971,35.511M37.189,32.576C36.287,32.576 35.915,33.66 35.952,34.391C35.952,34.512 35.975,34.538 36.096,34.55C36.227,34.559 36.396,34.572 36.542,34.572C37.298,34.572 38.066,34.309 38.066,33.469C38.066,33.464 38.066,33.459 38.066,33.454C38.066,32.973 37.67,32.576 37.189,32.576" style="fill:rgb(42,42,41);fill-rule:nonzero;"/>
            </g>
            <g transform="matrix(3.46736,0,0,3.46736,801,374.765)">
                <path d="M48.795,37.84C48.164,38.094 47.493,38.232 46.813,38.249C46.742,38.252 46.671,38.254 46.6,38.254C44.317,38.254 42.438,36.375 42.438,34.092C42.438,34.065 42.438,34.037 42.439,34.01C42.439,31.342 44.387,29.743 46.992,29.743C47.515,29.747 48.035,29.811 48.543,29.935C48.635,29.968 48.698,30.056 48.699,30.154L48.699,32.05C48.7,32.055 48.7,32.061 48.7,32.067C48.7,32.151 48.63,32.221 48.546,32.221C48.541,32.221 48.536,32.22 48.531,32.22L48.037,32.22C47.946,32.22 47.868,32.151 47.857,32.061L47.738,31.4C47.664,31.016 47.354,30.836 46.693,30.836C45.046,30.836 44.482,32.278 44.482,33.743C44.482,35.474 45.287,37.023 47.269,37.023C47.691,37.015 48.107,36.926 48.494,36.759C48.517,36.749 48.542,36.743 48.568,36.743C48.654,36.743 48.73,36.804 48.748,36.889L48.881,37.588C48.914,37.681 48.878,37.786 48.795,37.84" style="fill:rgb(42,42,41);fill-rule:nonzero;"/>
            </g>
            <g transform="matrix(3.46736,0,0,3.46736,801,374.765)">
                <path d="M55.584,38.035C55.186,38.151 54.774,38.211 54.359,38.215C54.314,38.222 54.269,38.226 54.223,38.226C53.757,38.226 53.372,37.849 53.361,37.383L53.312,37.383C52.867,37.936 52.184,38.246 51.475,38.215C51.426,38.219 51.378,38.221 51.329,38.221C50.414,38.221 49.661,37.468 49.661,36.553C49.661,36.53 49.661,36.506 49.662,36.483C49.662,34.764 51.283,34.223 53.098,34.223C53.191,34.223 53.217,34.115 53.217,34.057L53.217,33.839C53.217,33.095 52.627,32.856 51.836,32.856C51.38,32.852 50.93,32.963 50.527,33.178C50.404,33.24 50.285,33.249 50.261,33.095L50.117,32.302C50.094,32.181 50.117,32.097 50.238,32.05C50.912,31.807 51.623,31.685 52.339,31.689C53.853,31.689 54.884,32.266 54.884,33.972L54.884,36.785C54.884,37.023 54.982,37.155 55.187,37.155C55.276,37.154 55.365,37.142 55.451,37.12C55.551,37.094 55.609,37.132 55.621,37.24L55.693,37.84C55.705,37.973 55.658,38.008 55.584,38.035M53.205,35.245C53.205,35.173 53.179,35.149 53.107,35.149C51.749,35.149 51.305,35.642 51.305,36.265C51.305,36.265 51.305,36.265 51.305,36.265C51.305,36.731 51.688,37.113 52.153,37.113C52.179,37.113 52.205,37.112 52.23,37.11C52.238,37.11 52.247,37.11 52.255,37.11C52.776,37.11 53.205,36.681 53.205,36.16C53.205,36.159 53.205,36.158 53.205,36.157L53.205,35.245Z" style="fill:rgb(42,42,41);fill-rule:nonzero;"/>
            </g>
            <g transform="matrix(3.46736,0,0,3.46736,801,374.765)">
                <path d="M63.396,38.081L60.318,38.081C60.312,38.081 60.306,38.082 60.3,38.082C60.217,38.082 60.149,38.013 60.149,37.93C60.149,37.924 60.149,37.918 60.15,37.913L60.15,37.588C60.15,37.497 60.217,37.42 60.306,37.408L60.789,37.312C60.896,37.287 60.992,37.18 60.992,36.94L60.992,34.2C60.998,34.152 61.001,34.103 61.001,34.055C61.001,33.443 60.497,32.939 59.885,32.939C59.869,32.939 59.854,32.939 59.838,32.94C59.814,32.938 59.79,32.937 59.765,32.937C59.166,32.937 58.672,33.431 58.672,34.031C58.672,34.031 58.672,36.94 58.672,36.94C58.672,37.18 58.768,37.287 58.877,37.312L59.357,37.408C59.447,37.419 59.516,37.496 59.516,37.588L59.516,37.913C59.516,37.917 59.517,37.923 59.517,37.928C59.517,38.012 59.447,38.082 59.363,38.082C59.356,38.082 59.349,38.081 59.343,38.08L56.269,38.081C56.263,38.081 56.257,38.082 56.251,38.082C56.168,38.082 56.1,38.013 56.1,37.931C56.1,37.925 56.1,37.919 56.101,37.913L56.101,37.588C56.1,37.498 56.166,37.42 56.255,37.408L56.736,37.312C56.846,37.287 56.943,37.18 56.943,36.94L56.943,33.143C56.943,32.975 56.884,32.769 56.691,32.734L56.16,32.651C56.068,32.644 55.998,32.562 56.005,32.471L56.005,32.133C56.005,32.128 56.005,32.124 56.005,32.12C56.005,32.028 56.08,31.952 56.172,31.952C56.173,31.952 56.173,31.952 56.174,31.953L58.252,31.762C58.385,31.748 58.445,31.823 58.457,31.94L58.529,32.628L58.574,32.628C59.116,32.046 59.873,31.711 60.668,31.701C60.727,31.695 60.786,31.692 60.844,31.692C61.875,31.692 62.722,32.54 62.722,33.57C62.722,33.58 62.722,33.59 62.722,33.6L62.722,36.94C62.722,37.18 62.818,37.287 62.925,37.312L63.406,37.408C63.496,37.419 63.564,37.497 63.564,37.588L63.564,37.913C63.565,37.918 63.565,37.924 63.565,37.93C63.565,38.013 63.497,38.082 63.414,38.082C63.408,38.082 63.402,38.081 63.396,38.081" style="fill:rgb(42,42,41);fill-rule:nonzero;"/>
            </g>
            <g transform="matrix(3.46736,0,0,3.46736,801,374.765)">
                <path d="M70.062,38.035C69.663,38.151 69.251,38.212 68.836,38.215C68.791,38.222 68.747,38.225 68.702,38.225C68.237,38.225 67.851,37.848 67.84,37.383L67.793,37.383C67.346,37.936 66.661,38.246 65.951,38.215C65.903,38.219 65.856,38.221 65.808,38.221C64.892,38.221 64.137,37.467 64.137,36.55C64.137,36.528 64.138,36.505 64.139,36.483C64.139,34.764 65.762,34.223 67.574,34.223C67.672,34.223 67.696,34.115 67.696,34.057L67.696,33.839C67.696,33.095 67.11,32.856 66.313,32.856C65.857,32.853 65.408,32.963 65.006,33.178C64.885,33.24 64.766,33.249 64.743,33.095L64.598,32.302C64.589,32.28 64.584,32.256 64.584,32.231C64.584,32.149 64.638,32.075 64.717,32.05C65.39,31.807 66.102,31.685 66.818,31.689C68.332,31.689 69.367,32.266 69.367,33.972L69.367,36.785C69.367,37.023 69.463,37.155 69.666,37.155C69.755,37.154 69.845,37.142 69.932,37.12C70.028,37.094 70.086,37.132 70.1,37.24L70.172,37.84C70.184,37.973 70.135,38.008 70.062,38.035M67.684,35.245C67.684,35.173 67.661,35.149 67.59,35.149C66.231,35.149 65.785,35.642 65.785,36.265C65.785,36.731 66.168,37.113 66.634,37.113C66.659,37.113 66.685,37.112 66.711,37.11C66.719,37.11 66.727,37.11 66.735,37.11C67.256,37.11 67.684,36.682 67.684,36.162C67.684,36.16 67.684,36.159 67.684,36.157L67.684,35.245Z" style="fill:rgb(42,42,41);fill-rule:nonzero;"/>
            </g>
            <g transform="matrix(3.46736,0,0,3.46736,801,374.765)">
                <path d="M75.24,33.275C75.219,33.353 75.148,33.408 75.067,33.408C75.044,33.408 75.022,33.404 75.001,33.396C74.77,33.333 74.532,33.3 74.292,33.3C74.266,33.298 74.24,33.297 74.214,33.297C73.654,33.297 73.19,33.749 73.175,34.309L73.175,36.94C73.175,37.179 73.271,37.299 73.378,37.311L74.099,37.408C74.191,37.416 74.261,37.496 74.256,37.588L74.256,37.913C74.257,37.918 74.257,37.924 74.257,37.929C74.257,38.013 74.188,38.082 74.104,38.082C74.098,38.082 74.092,38.082 74.086,38.081L70.771,38.081C70.765,38.082 70.76,38.082 70.754,38.082C70.672,38.082 70.604,38.014 70.604,37.932C70.604,37.926 70.604,37.919 70.605,37.913L70.605,37.588C70.603,37.498 70.671,37.419 70.76,37.408L71.242,37.311C71.347,37.286 71.445,37.179 71.445,36.94L71.445,33.142C71.445,32.974 71.385,32.76 71.193,32.734L70.638,32.651C70.546,32.644 70.476,32.563 70.482,32.471L70.482,32.132C70.482,32.129 70.482,32.126 70.482,32.122C70.482,32.03 70.558,31.954 70.65,31.953L72.728,31.762C72.863,31.748 72.909,31.845 72.923,31.965L73.043,32.951L73.092,32.951C73.416,32.241 74.103,31.761 74.881,31.701C75.065,31.697 75.248,31.726 75.422,31.785C75.506,31.823 75.517,31.893 75.494,32.027L75.24,33.275Z" style="fill:rgb(42,42,41);fill-rule:nonzero;"/>
            </g>
            <g transform="matrix(3.46736,0,0,3.46736,801,374.765)">
                <path d="M79.471,38.022C79.139,38.158 78.785,38.234 78.426,38.249C77.115,38.249 76.718,37.6 76.718,36.629L76.718,33.143C76.718,32.975 76.662,32.769 76.466,32.735L76.035,32.661C75.947,32.655 75.877,32.581 75.877,32.492C75.877,32.488 75.877,32.484 75.877,32.48L75.877,32.133C75.877,32.129 75.877,32.125 75.877,32.122C75.877,32.03 75.953,31.953 76.045,31.953C76.046,31.953 76.047,31.953 76.048,31.954L78.246,31.762C78.255,31.76 78.263,31.76 78.272,31.76C78.363,31.76 78.44,31.829 78.449,31.92L78.449,36.533C78.449,36.94 78.617,37.167 78.978,37.167C79.098,37.168 79.217,37.143 79.326,37.095C79.351,37.083 79.508,37.049 79.53,37.263L79.578,37.816C79.591,37.9 79.547,37.983 79.471,38.022M77.558,31.006C77.517,31.011 77.475,31.014 77.434,31.014C76.95,31.014 76.551,30.616 76.551,30.131C76.551,30.126 76.551,30.121 76.551,30.116C76.553,29.616 76.965,29.206 77.464,29.206C77.508,29.206 77.552,29.209 77.596,29.216C78.293,29.216 78.607,29.575 78.607,30.091C78.607,30.681 78.185,31.006 77.558,31.006" style="fill:rgb(42,42,41);fill-rule:nonzero;"/>
            </g>
            <g transform="matrix(3.46736,0,0,3.46736,801,374.765)">
                <path d="M86.04,38.035C85.642,38.151 85.229,38.211 84.814,38.215C84.77,38.222 84.725,38.226 84.68,38.226C84.214,38.226 83.829,37.848 83.82,37.383L83.771,37.383C83.326,37.936 82.643,38.245 81.934,38.215C81.886,38.219 81.837,38.221 81.789,38.221C80.873,38.221 80.119,37.467 80.119,36.551C80.119,36.529 80.119,36.506 80.12,36.483C80.12,34.764 81.74,34.223 83.553,34.223C83.65,34.223 83.676,34.115 83.676,34.057L83.676,33.839C83.676,33.095 83.086,32.856 82.293,32.856C81.837,32.853 81.387,32.963 80.984,33.178C80.863,33.24 80.741,33.249 80.716,33.095L80.576,32.302C80.567,32.28 80.562,32.256 80.562,32.231C80.562,32.149 80.616,32.075 80.695,32.05C81.37,31.807 82.082,31.685 82.799,31.689C84.311,31.689 85.345,32.266 85.345,33.972L85.345,36.785C85.345,37.023 85.438,37.155 85.644,37.155C85.733,37.154 85.822,37.142 85.908,37.12C86.003,37.094 86.064,37.132 86.076,37.24L86.149,37.84C86.162,37.973 86.113,38.008 86.04,38.035M83.664,35.245C83.664,35.173 83.64,35.149 83.568,35.149C82.209,35.149 81.766,35.642 81.766,36.265C81.766,36.266 81.766,36.267 81.766,36.268C81.766,36.732 82.148,37.114 82.612,37.114C82.638,37.114 82.665,37.112 82.691,37.11C82.699,37.11 82.707,37.11 82.715,37.11C83.235,37.11 83.664,36.682 83.664,36.161C83.664,36.16 83.664,36.158 83.664,36.157L83.664,35.245Z" style="fill:rgb(42,42,41);fill-rule:nonzero;"/>
            </g>
            <g transform="matrix(3.46736,0,0,3.46736,801,374.765)">
                <path d="M88.746,38.215C88.161,38.207 87.58,38.126 87.015,37.973C86.918,37.939 86.822,37.878 86.822,37.756L86.822,36.292C86.822,36.183 86.859,36.11 86.992,36.11L87.424,36.11C87.521,36.11 87.603,36.183 87.615,36.28L87.726,36.722C87.808,37.061 88.142,37.229 88.735,37.229C89.333,37.229 89.721,36.89 89.721,36.446C89.721,36.027 89.415,35.823 88.986,35.655L88.239,35.366C87.458,35.066 86.859,34.635 86.859,33.673C86.859,32.317 88.179,31.69 89.356,31.69C89.865,31.683 90.372,31.756 90.859,31.904C90.954,31.94 91.039,31.976 91.039,32.121L91.039,33.433C91.039,33.437 91.04,33.441 91.04,33.445C91.04,33.537 90.964,33.612 90.872,33.612C90.863,33.612 90.855,33.612 90.847,33.611L90.489,33.611C90.39,33.617 90.302,33.541 90.295,33.442L90.208,33.058C90.149,32.782 89.86,32.639 89.394,32.639C88.975,32.639 88.543,32.857 88.543,33.287C88.543,33.673 88.804,33.827 89.236,33.996L89.993,34.283C90.816,34.468 91.413,35.195 91.435,36.039C91.435,37.505 90.006,38.215 88.746,38.215" style="fill:rgb(42,42,41);fill-rule:nonzero;"/>
            </g>
        </g>
    </g>
</svg>
